<mxfile host="app.diagrams.net" modified="2024-06-03T03:51:30.757Z" agent="Mozilla/5.0 (Windows NT 10.0; Win64; x64) AppleWebKit/537.36 (KHTML, like Gecko) Chrome/125.0.0.0 Safari/537.36 Edg/125.0.0.0" etag="yDHnP09rePD9x0pcJ9LQ" version="24.4.13" type="github">
  <diagram id="R2lEEEUBdFMjLlhIrx00" name="Page-1">
    <mxGraphModel dx="1042" dy="1717" grid="1" gridSize="10" guides="1" tooltips="1" connect="1" arrows="1" fold="1" page="1" pageScale="1" pageWidth="850" pageHeight="1100" math="0" shadow="0" extFonts="Permanent Marker^https://fonts.googleapis.com/css?family=Permanent+Marker">
      <root>
        <mxCell id="0" />
        <mxCell id="1" parent="0" />
        <mxCell id="9nawGHE7vC64cBDkuVQV-40" style="edgeStyle=orthogonalEdgeStyle;rounded=0;orthogonalLoop=1;jettySize=auto;html=1;exitX=0.5;exitY=1;exitDx=0;exitDy=0;entryX=0.5;entryY=0;entryDx=0;entryDy=0;" edge="1" parent="1" source="G0jkS-PYpLeZnaO4Q7pQ-1" target="9nawGHE7vC64cBDkuVQV-39">
          <mxGeometry relative="1" as="geometry" />
        </mxCell>
        <mxCell id="9nawGHE7vC64cBDkuVQV-42" style="edgeStyle=orthogonalEdgeStyle;rounded=0;orthogonalLoop=1;jettySize=auto;html=1;exitX=1;exitY=0;exitDx=0;exitDy=0;" edge="1" parent="1" source="G0jkS-PYpLeZnaO4Q7pQ-1" target="9nawGHE7vC64cBDkuVQV-43">
          <mxGeometry relative="1" as="geometry">
            <mxPoint x="810" y="430" as="targetPoint" />
          </mxGeometry>
        </mxCell>
        <mxCell id="G0jkS-PYpLeZnaO4Q7pQ-1" value="Paciente" style="ellipse;whiteSpace=wrap;html=1;" parent="1" vertex="1">
          <mxGeometry x="30" y="317.57" width="120" height="80" as="geometry" />
        </mxCell>
        <mxCell id="G0jkS-PYpLeZnaO4Q7pQ-2" value="Medico" style="ellipse;whiteSpace=wrap;html=1;" parent="1" vertex="1">
          <mxGeometry x="390" y="350" width="120" height="80" as="geometry" />
        </mxCell>
        <mxCell id="9nawGHE7vC64cBDkuVQV-20" value="" style="edgeStyle=orthogonalEdgeStyle;rounded=0;orthogonalLoop=1;jettySize=auto;html=1;" edge="1" parent="1" source="G0jkS-PYpLeZnaO4Q7pQ-4" target="G0jkS-PYpLeZnaO4Q7pQ-1">
          <mxGeometry relative="1" as="geometry" />
        </mxCell>
        <mxCell id="G0jkS-PYpLeZnaO4Q7pQ-4" value="Puede tener" style="rhombus;whiteSpace=wrap;html=1;" parent="1" vertex="1">
          <mxGeometry x="200" y="350" width="80" height="80" as="geometry" />
        </mxCell>
        <mxCell id="G0jkS-PYpLeZnaO4Q7pQ-6" value="" style="endArrow=none;html=1;rounded=0;entryX=0;entryY=0.5;entryDx=0;entryDy=0;" parent="1" target="G0jkS-PYpLeZnaO4Q7pQ-2" edge="1">
          <mxGeometry width="50" height="50" relative="1" as="geometry">
            <mxPoint x="280" y="390" as="sourcePoint" />
            <mxPoint x="320" y="340" as="targetPoint" />
          </mxGeometry>
        </mxCell>
        <mxCell id="9nawGHE7vC64cBDkuVQV-21" style="edgeStyle=orthogonalEdgeStyle;rounded=0;orthogonalLoop=1;jettySize=auto;html=1;exitX=0.5;exitY=0;exitDx=0;exitDy=0;entryX=0.5;entryY=1;entryDx=0;entryDy=0;" edge="1" parent="1" source="G0jkS-PYpLeZnaO4Q7pQ-9" target="G0jkS-PYpLeZnaO4Q7pQ-2">
          <mxGeometry relative="1" as="geometry" />
        </mxCell>
        <mxCell id="G0jkS-PYpLeZnaO4Q7pQ-9" value="Pueden tener" style="rhombus;whiteSpace=wrap;html=1;" parent="1" vertex="1">
          <mxGeometry x="130" y="470" width="80" height="80" as="geometry" />
        </mxCell>
        <mxCell id="G0jkS-PYpLeZnaO4Q7pQ-10" value="Especialidad" style="ellipse;whiteSpace=wrap;html=1;" parent="1" vertex="1">
          <mxGeometry x="220" y="480" width="120" height="80" as="geometry" />
        </mxCell>
        <mxCell id="G0jkS-PYpLeZnaO4Q7pQ-11" value="" style="endArrow=none;html=1;rounded=0;entryX=0;entryY=0.5;entryDx=0;entryDy=0;exitX=1;exitY=0.5;exitDx=0;exitDy=0;" parent="1" source="G0jkS-PYpLeZnaO4Q7pQ-9" target="G0jkS-PYpLeZnaO4Q7pQ-10" edge="1">
          <mxGeometry width="50" height="50" relative="1" as="geometry">
            <mxPoint x="280" y="520" as="sourcePoint" />
            <mxPoint x="330" y="470" as="targetPoint" />
          </mxGeometry>
        </mxCell>
        <mxCell id="9nawGHE7vC64cBDkuVQV-6" style="edgeStyle=orthogonalEdgeStyle;rounded=0;orthogonalLoop=1;jettySize=auto;html=1;exitX=1;exitY=0.5;exitDx=0;exitDy=0;entryX=0;entryY=0.5;entryDx=0;entryDy=0;" edge="1" parent="1" source="G0jkS-PYpLeZnaO4Q7pQ-14" target="9nawGHE7vC64cBDkuVQV-2">
          <mxGeometry relative="1" as="geometry" />
        </mxCell>
        <mxCell id="G0jkS-PYpLeZnaO4Q7pQ-14" value="Puede tener" style="rhombus;whiteSpace=wrap;html=1;" parent="1" vertex="1">
          <mxGeometry x="385" y="480" width="80" height="80" as="geometry" />
        </mxCell>
        <mxCell id="G0jkS-PYpLeZnaO4Q7pQ-21" value="N:N" style="text;html=1;align=center;verticalAlign=middle;whiteSpace=wrap;rounded=0;" parent="1" vertex="1">
          <mxGeometry x="260" y="340" width="60" height="30" as="geometry" />
        </mxCell>
        <mxCell id="9nawGHE7vC64cBDkuVQV-2" value="VisitadorMedico" style="ellipse;whiteSpace=wrap;html=1;" vertex="1" parent="1">
          <mxGeometry x="520" y="480" width="120" height="80" as="geometry" />
        </mxCell>
        <mxCell id="9nawGHE7vC64cBDkuVQV-10" style="edgeStyle=orthogonalEdgeStyle;rounded=0;orthogonalLoop=1;jettySize=auto;html=1;exitX=0.5;exitY=1;exitDx=0;exitDy=0;" edge="1" parent="1" source="9nawGHE7vC64cBDkuVQV-8" target="9nawGHE7vC64cBDkuVQV-9">
          <mxGeometry relative="1" as="geometry" />
        </mxCell>
        <mxCell id="9nawGHE7vC64cBDkuVQV-8" value="Puede tener" style="rhombus;whiteSpace=wrap;html=1;" vertex="1" parent="1">
          <mxGeometry x="680" y="480" width="80" height="80" as="geometry" />
        </mxCell>
        <mxCell id="9nawGHE7vC64cBDkuVQV-9" value="Visita" style="ellipse;whiteSpace=wrap;html=1;" vertex="1" parent="1">
          <mxGeometry x="660" y="590" width="120" height="80" as="geometry" />
        </mxCell>
        <mxCell id="9nawGHE7vC64cBDkuVQV-15" value="1:N" style="text;html=1;align=center;verticalAlign=middle;whiteSpace=wrap;rounded=0;" vertex="1" parent="1">
          <mxGeometry x="590" y="430" width="60" height="30" as="geometry" />
        </mxCell>
        <mxCell id="9nawGHE7vC64cBDkuVQV-17" value="N:N" style="text;html=1;align=center;verticalAlign=middle;whiteSpace=wrap;rounded=0;" vertex="1" parent="1">
          <mxGeometry x="180" y="455" width="60" height="30" as="geometry" />
        </mxCell>
        <mxCell id="9nawGHE7vC64cBDkuVQV-19" value="" style="shape=image;verticalLabelPosition=bottom;labelBackgroundColor=default;verticalAlign=top;aspect=fixed;imageAspect=0;image=data:image/png,iVBORw0KGgoAAAANSUhEUgAAAsoAAAHkCAYAAAAn2AmbAAAAAXNSR0IArs4c6QAAAARnQU1BAACxjwv8YQUAAAAJcEhZcwAAFxEAABcRAcom8z8AANeSSURBVHhe7P2Hl11Vlib6vv/hjTfGvePdvnW7y2WZrqqu6jLtu+pV3zbVfcu1qaqs9JXee59AOjLx3ggkQICEEyCDk0CABAghQICEECCEhISRkMODErTe+S0xxebkPiEpFCfixDkzxvi0915urzXXN+f69to7Qv+vX/zFXyzPPPNM8fOzn/0skUgkEolEIpFIdJBCOZFIJBKJRCKRaEEK5UQikUgkEolEogUplBOJRCKRSCQSiRakUE4kEolEIpFIJFqQQjmRSCQSiUQikWhBCuVEIpFIJBKJRKIFKZQTiUQikUgkEokWpFBOJBKJRCKRSCRakEI5kUgkEolEIpFoQQrlRCKRSCQSiUSiBSmUE4lEIpFIJBKJFqRQTiQSiUQikUgkWpBCOZFIJBKJRCKRaEEK5UQikUgkEolEogUplBOJRCKRSCQSiRakUE4kEolEIpFIJFqQQjmRSCQSiUQikWhBCuVEIpFIJBKJRKIFKZQTiUQikUgkEokWpFBOJBKJRCKRSCRakEI5kUgkEolEIpFoQQrlRCKRSCQSiUSiBSmUE4lEIpFIJBKJFqRQTiQSiUQikUgkWpBCOZFIJBKJRCKRaEEK5UQikUgkEolEogUplBOJRCKRSCQSiRakUE4kEolEIpFIJFqQQjmRSCQSiUQikWhBCuVEIpFIJBKJRKIFKZQTiUQikUgkEokWpFBOJBKJRCKRSCRakEI5kUgkEolEIpFoQQrlRCKRSCQSiUSiBSmUE4lEIpFIJBKJFqRQTiQSiUQikUgkWpBCOZFIJBKJRCKRaEEK5UQikUgkEolEogUplBOJRCKRSCQSiRakUE4kEolEIpFIJFqQQjmRSCQSiUQikWhBCuVEIpFIJBKJRKIFKZQTiUQikUgkEokWpFBOJBKJRCKRSCRakEI5kUgkEolEIpFoQQrlRCKRSCQSiUSiBSmUE4lEIpFIJBKJFqRQTiQSiUQikUgkWpBCOZFIJBKJRCKRaEEK5UQikUgkEolEogUplBOJRCKRSCQSiRakUE4kEolEIpFIJFqQQjmRSCQSiUQikWhBCuVEIpFIJBKJRKIFKZQTiUQikUgkEokWpFBOJBKJRCKRSCRakEI5kUgkEolEIpFoQQrlRCKRSCQSiUSiBSmUE4lEIpFIJBKJFqRQTiQSiUQikUgkWpBCOZFIJBKJRCKRaEEK5UQikUgkEolEogUplBOJRCKRSCQSiRakUE4kEolEIpFIJFqQQjmRSCQSiUQikWhBCuVEIpFIJBKJRKIFKZQTiUQikUgkEokWpFBOJBKJRCKRSCRakEI5kUgkEolEIpFoQQrlRCKRSCQSiUSiBSmUE4lEIpFIJBKJFqRQTiQSiUQikUgkWnDEQvnNN+HNxCijhRfTFa3jSyQmCW2cnAzw4bb+JBL70c6byUB7fxLDjDYeTCWOWCiX8lYH+xIjjH1vDR6xx4O3Og7aNr5EYrKAg23c7Df4cFt/EomKfW+18qbfINB/ri+JocdUxcFeGLdQjifMm+/bUK64bU2Zt/zhxAjC3D+yeVvZN0WBdKKw7623ypZtu8uVt68t85Z10DLWRKJvWLbflzY/t2vSfWnfvn3l4SefK3OXPtjet8RI4/IOL+9au6m81YmRbfzpF8TknS+8XBbc+Ui5Slxu6VtiyNBZe6+8fU3Z9OzOgdIU4xbKSPzGG2+Uv/nhFeU3/uH08vufPicxYvjnnzqnzv2FN95/2PwZNPjx0PfbHz+r/N6nzm4dbyLRL/Cl3/zoGeWmVY9VLrZxtF/wc+6ie8ovfeCU1r4lRhu//pHTy5fOvr7Dkn2T+lrcz/rN28q/+9LM8juduNzWt8Rwwdr72x87s1x39/o6/228mAockVB+vSOU//rouZ0Ae3L5rc7gEqOFf/rRM+vcz7z+3sPmz6DBz+JVj5f3fPjUKljaxptI9At86Zc/eEq5YeWjlYttHO0X/Jy14O7yj/7uhNa+JUYbv/j+k8tnz1jUYcnkC2VvK//oszPKr3349Na+JYYL1t73fOi0suCuR+r8t/FiKnDEQvl/fP+y8qsfOrX8s0+clRgxeMo397NuuO+w+TNo8LPk3sfrDvlvf/zM1vEmEv0CX3rPh08rN94zNUL57IUry//19ye19i0x2viVD55aPn/mdR2WTI1Q/lefP6/85j+c0dq3xHDB2vsbHzm9LFyRQjkxJEihnEhMDFIoJwYVKZQTk4UUyomhQwrlRGJikEI5MahIoZyYLKRQPkT8TsdQKVSmB1IoHxz4/GsdAeQXFJxDW7nEaGMUhTI/+52WdPj1j5xW/ulH94ujpj/+bge+Y5Qfab3gl9B+s+PPbXmJQ8d0Esr8qFf8Pty4rrzY7dvZtvyJAo7i6lh9HxUY/8gI5d/95Fk1yP3S+0+uvwjwyx84pfxW51qQa5ZrA1KqeziE6RVsE/3FKAllIgaXBbXf/eTZtZxrgbS7bIAo/oPPnFv+23cuqb+QgtfAbm3lE6OLQRXKOPwrHzylcv1gfD8c8LH4BZ5mulhunfjP35pd/vgrs97+xdrOevB2OfWk/+dvzn5XvSaijf/UKfOnX7ugjqGtXOLQMGhC2dzSE/SFeCoeE5p+sdx15UvXnONPk28H0ww484efPbf8107sdv+x9EjtT+ee+sNWke5cmnv30j78Hkfx+Xc+oX/vcH0Uwc4jI5SR9T9+Y3b51swl5ejZS8tXzr2x/NsvzqzpzXJNIOZvfvT08sWzbyjHX7H8wJ8JaSvbBMMK3hkMJx+jIpTx8EPHX125/Gffvrjy7b9995JyTOf6g8dd3TOI/tqHTy1/dfTcsmX7C+VjJ88v35y5uIMlb4vl5GviHQyiUMbrP+qIhc+fdX056qJbyg8uua18AN87i/mR8Ndf+Pj3X5pVzll4T/n7Y6+qPhd5BJA/E3X/40+X06+9u/z9T64qp1x9V/nDzgOn+/rLIDOuW1Xue+zptwXKz/eDfym/Yt1T5cpla+vucz6cjh+DJpSJyf/7GxeVb81a0tEZF5X3dNagvz5mbvnSOTeUL3dwwhV3lD/49Lnlt97mKF1BiM647t7yl0fNqWsWYR3ttUGM/9sfX1G2Pv9CbdPDYls5wME/6Ty86c+nT1tYRTj/+FTnXNq//sL5rTzlXzZerrh9bblzzeY6hrMW3NNZYy6p6d3lRwFsMjJCGakIXj+v7/1ZeeNnb9agKCDKs8OM3AjFMOrH7vNFS1Z3guQz5V92nIODRlntqq8saAeZ//irF3TaXlWdyUJjB0KdX+3U1XavJ7nEkWMUhLKAJ6jecM/+v2970ry7yv/+v44rZy5YWa+vW/loDWo4inex4yaY/x9/c3z58+9dWt56a1/1hwUr1lcQA/4MXeVpp577qVe53knPRX30MIhC2YJlt2vL83sqh199fW+54KbVNS7bvROD9782Pu3tmHzqu+P62/F7/1uY/a+YXf/C351Y/uxbF5dN23aXozoPm9Ii1v9qB4Ty0zteKBfedH/50Zzby7rNz1chYo343/7nT8vcpQ+VrTterG1GPUcPtOxoHeF/G57eVW5Z/UT1rXwwHT/YdpCE8q91+PbfO7rjjY62OO7y5eX/fO8J9YFoS0fUXnLLg+X+Dc/WjTk8qHz7+xM7D1xXVtH74ROuKf/zB5eXE6+6s/I7NIVy/E/7NXb/7Qn1/4jw/8R978Kbyz9538kH+BwPdsrj1j/qlH1/54HOzzM7X+wI4/PKv/vyrPLszpdqms2S/Rzdj9gwdF99u+neDZ1xPl9F9pPP7a59jPKO8ValXvO5zvWw6hpxY6SE8ldm3FjbPOHKO8rd67aUJ57ZVf6kI2r/5kdXlE+curDWYxQ7x+899qryiVMWlL/oPO194tQF5TsX3FLb8bT4yc61OojyXzrB9W875+//6by6kydQ2qF7vSPEj7741vIvP9ch6Jdmlo932npfp8zvfeqcQ9qVTowPoySUb7zn8Vrm2rse6QTHU8st9z9Rr69f+VgVB17RfbIT6OwKEASC+3uPvbJ88/wl5dU3flY+d8Z1nUC4qHzhrOs79zitlsf19/1kXvnnHR8I7lsA3DMX9tHCIAvlXS++Wm594Mn6KcO//eL55d908JETry0fO2l+3an7i+/NqXH5g8dfXcUF/8Hp93XEw8dPmd9p48IqKMT/j548v5azs/fDS2/r+Mtl5V93fOVDHXFgDfgvnfbcm4i+cPHq6g/HdGK7T5j+y7cvLn/34yvLdXc/Vh5/emddO/6yI0LUsyYow28IIW9wrDk3rHoshfIRYtCEsvN/+bkZZXOHIzeuerwKz4c3bS+3P/hk+dDx15TvXnhL+RefnVEFqpiKk//P9y6tfBNn/Y3ebbtfroLUbi+e0iS4qK39sfuqctRFS8trHTH+jfMXVw7h2MdPXlD5bIf4f/3w8spjfLOb/freN8tb+/ZVvSL2O//Zm29V/8A/ffvoSddWH+JbNlE+0Glz2ZpNZW2n/391NJ+4vfz7L8+sb0T0j5b5D1+/sL7Zca0+jRNie9gwekL53BtLhyflcx0HW7hifdn47K7ydx3yrH1yW9n10msdku+pdb/cKbfn5dcqoewUwKpHn66vuO9Yu7mT93p5avsL9RXcqVevKDtfeLVs3/Nyefm1veX7nQC6+L79guW5DvGJknnL1tX2OMK3L7g5g2QfMSpCmeNev/LRGvi88hUc8fjNDmevuWNd+c+dB7iHNj5Xeffo1p2dxXtOOf7yO6pA3vHCK+WNTgAllG/uiOtr7lzXeeCbXdZ0yr/51r5OgNxWHwbXb3m+XuO64HmwV4OJ4cIgC2U7Y+ufer6ceOWd9VOJmR1/f/HVN2oc/+nly8tlt64pz3d47lrZv+kICJ8Zbd/zSo3f8+9aXwWJdWDvz94s2zrpP527vGx6bnf52oybOgLg6rJ1xwvVf+597Jka+x/buqPex87fus1ExNyycv3W8lrHp17u3PvBJ54tf/Dpc8pNHZ/d9dKrZXfn3l5zEyjbdrvva9XvFnTunWvAkWHQhLL/PdWczu8IXrwkRHHP7jKN8GAntnp42tB5UMI/nPpORwt4cDp30ary9I4Xa9srHtlShac21Jf/F0ddWo6/ohO7X98fu3/25r7yhbOvrxtyL3V4R6fYNPl3X5xZlq/ZXHXNc7te6vjPPeXp51+snCOsv3vhzVU44+Wfv92me+jPedffWz9NXdcRx3TMK6+9UVas21I3UfTN+nLGtXd31o+99W28B8VTr1lR1xPtz126pq5Rw7gJOHJC2ROW9xYbn93dEQBvlXkdQfFvOk9CdpgFwH0d0eF7HN+RIZuASQwLbETDTy5b3gmqb5VzOsR+qiOqCehzF66q/TylQ5pnOgFZ4D3tmrurwPBqmzMj8qVvv35Z9djW+uTVFD6JicMoCeUb73msioFHt+zoBOQ7yiOd4EoUXLXs4XJ8h9MC2hnzV3ZEwMvl0g5XCeF7O6JawCOwPTB6APQJx/GdgI7/guenT19Urlq+tgqPn1y2rDzfERFXL19XRRP7Nu2dGF4MslD2SptAxfdT5t1VHnrCQ+Hr9Rvivz76sioc8PeEjpB+8ZXXO8L5ocr9dU9tr6/Cd3Q4fcb8u8srnYVfHl/wdkWbR8++te6YaffaOx+pr7ptsjzceYA8//r7qgDxjf+xHd8Q233ydO+jW6uQ/mefOLN+O33a2xsoSzoPopcufbCKD76188VX6xufFMpHhkETyuC/W//RpbfXTTM6Au8+cNy8csFN95cnO5rj+CuW1/p2nL/Q0Qb+Z0GfgdpcW/34M3WjzkPff/z6ReWkzsPYRYvvrzH59I6ewL37NzxTueeTo+9duLQ80HkwE7/P7MR4Avjr5y2uHCdcpX29I475Ca765nh+R+ht2b6n+gzR/uRzu8pdHa1jN9u9Z954X2eMHT536hLM93ba/mpHAxHjXzzrhrrxd9uDT1Yd9clTF9Z14frO2kHb8BtvVvC6aZNhwGgK5c6PHbO5t62pn0189KT5dXdgzcZt5WcdAvquyE4CYfB//t0J9ZsiQtn3OnNueajuSAu2iGFHT+B8btfL5d9/ZVYlqSD47Vk3V0HtVctX3/7cw2u53S+/1mln+9A+eQ0CRkkoL7lvQ3mow9sHOiLhwQ5WPrK1XuMgsUwMP9zhm8C57KFN5dldL9VF/U+/emGHv3vrg9xdDz9VFt+7oe6ECKDa/4X3nljuXLu5bHhmZ7338jWb6jf6dpRzcR8dDLJQtkgv7vDfK2O7uD/tiFbCxIaGX+7z8Ceu/9svzawC9r7H9gsRu2kbOrGYiLbo2yEjZv4///0ndYdYXPeN8rdnLakPoHb2iBXX3tiI94SE7zYvufmBWt9fvLAj5z7/9TsXl+Ud37GeEMfeQML6Tlv/8vMzyppOG4s7Pp1C+cgwiEKZr/ztj67sCMr9bztwxOcKs5c8ULnns4iVj2yp3LMx99kzriuvdDjiF1PtBHsDSG989vRFtf7aJ5/b/1b71jVVfPvFP59rvPjKG3UX2u6ytxt//JUL6ucYMzoctBknptM7Pot4ZseL9Zpf0C23PrCx7hB/4/wl1RfsPD/VEc82XO58eHN9kPOQSP94Q+IB0X2+33l4JMaPuXhp+X//9bHlgx2f8eMB8+9+fEU9/+asxfW+TZsMA0ZOKJt0P18776ZKSM626O5H606EXeBXXt9bLusI6I3P7Cp3dIj77740q/xFh5jKENd+s9nT3IWdJz27EV/ttHfR4tU18P7eJ/1W9DPluo5I8T2Scr73QSQ/8zrEO+2aFfW3X/f/Buq7JyMxMRgloWyh95oX54jiq+9YV+7rcNAv58268b4qkP3CKnF87NxlVShf3gm6/3DitfWNhwDt9RpRcXFn0cd/vuM3nH1b55dAfD9HMAjkubiPFgZZKO944dWyaOWjdcPBt8d//r059XWwV8Z2ge10+WTIN5xPd3i8dPXGulkhVnuDePK8u8qMRffW+/gc7t9/eVb5TEegvPDy/k837NQ9+vanFraUbX50C2VixWcb7mFXjjjWBz9+mdtbyRUdkbLk/g31l7Z8J0ow2VFMXzoyDKJQ9gttfuHfA5p47HdGrEV2XIlTvwNi1/WW+zfWhyh6wLf2Xzx7v1AmZv3JTm8htu9+pZxx7cr64HbJzQ9W/tAQ3vZ5U4ij3mpf2sn70PHX1Pvh9eqOUBbP/TLfR068pn7uOWfpg3WTbnPHH3wG4iHTPQlgmsWbDnV9ruR+/pqS+K8tmol45iPyiPV/9YXz6qYjEe+No51rP/ynW3cNA0ZKKPvNTN/p+PGK4h93ArBfePK058fTnJ8Lbry/il8/dtiQVGDz7dr+79ZerAH3kQ6pBUW7Csr980+dU199Ey8+dvez9fkXyw8vua0GWE9tXmfM7rTNoTJI9gejJJRXrd9ag6LXfH5+NOe2uoNsYfaLTR4ABW289H3mvOUP13KbOgHWz5fOvqHuRNtl8NpZ4Nv54iv1u8tjZt9aXnjl9fpNJ1HtFzrqXw/IB7yRwaAKZTtedsPe7IgDr48t3t6iPPJUR6B06vmFu2vvXFd3gj0cdg71Mzq7vgSKV9beknzm9IU1Lr/cEdd2g0/piAhi4LiOcPBb/94K+usWfo6+aGndQLFeaIdQF+cJGufasFvsz3b50Z57ecvz/c4aQMgQO368wUmhfGQYRKFcBVUnVuOiH6L0//s3x1eB660zUUkL2OUFYteGms20WR3d4ccGHX7gbGgS8X3esv2x28OfHxpGHQ9qxLYHML9k6ptmGuQX/u6E8rGTr62i+seddcG3yHaUrQN+/KKrB8o9r7xWHugI4us7Pk482+22e80PpNNMuEt021SxFthA8e21TRrl8Ny4vN3ptskwYKSEMgIj0qwb7i//4weX14H7SwA+Uke4U6+5u77G8CmGv4d4zqJ76pPgZ864rj492Qn+vU+dVV+XEMcXdwS0vw7gW52a98mz62+wfmvWzfXPwJx81V21/n8/Zm7dcbioE2Bd+zj+n35s+Mg0KBgFoQz+4sr3LrylPvF73Tezw2v/iYi/K+sXiCzC/mY4zhEOf/39ufUNx4U3ra4B3N+B/asON/1lFq+Vf/9TZ9dv5S695aEqFCwE3oz4vvInnaBoF8E9m31IDDcGUSjjIC7u/4Zzdf0czneUPpeY0+H6WQvvqZ/UESs+ofOn40644s7yR5+ZUf7kKxfUN4dzlj7Uic931nY8IHqbcvbCVfUvDfim/3/VvxBwVW3fmnBSJ5b/XSfNWxnx3l+v4EN8hGC5uBPb/U6AjROfeqhj55nf+IUtfxFAf8+77r7qd/o7rH8hYLIwiEIZ/Jk4b+z8GUF641c+cEqnn9dXjeATH1oD32iK/+e7l9aHPDvN3oiIzb6Lf39HV3iTgSt441MivxxYY/c1K+p3+D4T8hdb/L6UzTy/fO1NNQFL3NrU8GaQyFYWd60Hf9XRO+d27omTfoHbWxH+YEPvX3xuRl1TrBe+7T+qc24Mfg/LX73gA/LcT/qfd/pvPB4e/bI3TdVtj2HASAnlGDByN0WHP6kiTeAinF3vT+sI6U7a/uv438v2/w990sFrP/kR9ByVVU6bUaZZJ8VGfzEqQhn87WN8wrHgdRsH/XF7ecH1QFt51yBP3crdt8t23z8x3BhEoRwIXu6Pqft5DL/RESrv+dBpdVfN9/rx1wjwd7+fnH6gbPA/YnPNfzudT0T77/aVd2L+gfVAuQ4iLdYOflf9M9Jquf1pbWNKHDoGVSiD+cUF877/P6B5+/ptfjmPfNc408wT1w9wqHOU9w4f9/NoP0ff4Zp6hHKt/za/+G+UbbtntNmdt/8e+/2kpnXOu7n+Tp/290detx2GBWwwUkI5/ui8Y3daALmk1+sOGRCkErmDWv7t8yjbzNuf9s55va513t2e/ER/wNajIpRxaT/286uZFuc4d4CHHVQevo393Gwv33adGC3g1aAK5Xfx+G3gqsX71z98erlz7VP1G+Pf/dTZdeF/V70eHA8/cozzwDt575wfqP82nLf1rVdaYvwYZKFc+dHhlPi6/zrm/W0eyHubA65rGeddPAy4bovdUX9/e+9cN/kVZSM9zpv5zf5EX9vKN/vwrvu7fvv+wwjjGymhnBh+cNhREcqJRD/BlwZVKI8FO22fPn1h/SzJfwA1zIv4qGKQhXJiuJBCOTF0SKGcSEwMpqtQBq+E+U1bXmL6I4VyYrKQQjkxdEihnEhMDKazUNZ3aMtLTH+kUE5MFlIoJ4YOKZQTiYnBdBbKieFGCuXEZCGFcmLokEI5kZgYpFBODCpSKCcmCymUE0OHFMqJxMQghXJiUJFCOTFZGFqh7L+dFmANLjFa8KehzP151+3/72nbeDJd4OemVY+VX/rAKfVvwbaNN5HoF/jSP37fyeX6lesrF9s42i/4OWP+ivK//6/jW/uWGG38wntPKp8+bWGHJZMvlNdt2lZ+/9PnlF/+wKmtfUsMF6y9v/z+U8r8u9bV+W/jxVRg3EL5rbfe7AjlveWrM24sf3X0nPrfNCZGD3/Zmfur3/7vmtt4Ml3g5661m8p///7c8jc/vLx1rIlEv/A3HfzVMXPKHQ89WbnYxtF+wc+Vy9aUP/vOxa19S4w2/vKoS8txly3r6OS3Jlko7ysbnt5RPnjcvPrmuq1vieGCtdf/sHzbA0/UuNTGi6nAuIXymx3s3fuz8vhTz5WHNmwpa5/YmhhBmPtnd+ypD05tPJku0P+de14qaza0jzOR6Df4Eg5Oti95O/jczj3lwcefau1XYrTx0ONbypNPPz+pIhne6tzvxVdeKw9vfDrj8ghBHNzRiYPiUhsvpgLjFsqB1197tbz26svltVcSI4nO3L/xxuut3Jhu2PvGG+1jTCQmCTg42YLE/fjwq6+81NqnxIijE+Nff+21Vu70G3v3ZkweRUxFHBwLRyyUX3755fLiiy8mRhivTVEQnWi8/vrrreNLJCYLODgVQpkPv/DCC619SiReeeWVVu70G290BFNbfxLDjamIg2MhhXLiiJFCOZGYGKRQTgwiUignJhMplBNDhxTKicTEIIVyYhCRQjkxmUihnBg6pFBOJCYGKZQTg4gUyonJRArlFrz00kvl1Vdfrce2fPeQ35bXBk4daMsfJhjjeOZAnbC38+a1Y3d+r7mBFMqDjfFy5GDAifCzfrQ/2TCOsXjeC+Ef4Lxpi0iLdg9mp1ESyt22aiJ4xW7d8+J8rPUioO22daNtnpVr60vcHw42d4OMsWx9KDD+Nu70G4crlNvmFsYz/pj3tryx0HavsdqKPDgYp6cLjP9IxpJCuQvqb9u2rVx77bVl48aNP0cmAWz16tXlhhtuqNcHM776GzZsKCtXrixPPvnkz7U3LGAHWLVqVXnkkUcOax7U2717d4V6u3btKjt37qzpri2YO3bsOLBwyutuo4kUyoON5557rs5nd7r5NneO3XkHQ9RZs2ZN5SAfnq6+hvN84a677jrsmNH0Jed8hT85hz179hywPX86mC+NklDGy+3btx/gUkDMv+eee8qSJUtqn5599tlqR3nmZtOmTeWaa66p9XvFvV7rhvasdzEPkX799deXBx544F3COvLWrVtX+6PedOX4888/3xoDAsY11hoiv407/cbhCOXgCv9rpptH8YkNnB9KzMMD8WDp0qXVLgcrH1DOfXAz6mjrzjvvrG118yf4fPfdd1fdMtYcTBeYB/YWE9vy2cW4x7LpSAllhmiSrPsaGGTr1q3lO9/5Tg1sHKNZfu/evWXRokXluOOOq2nh0M02Agj52GOPlblz59YAOWfOnCq+m8FvkNAcQ3PMgWZeM80xbDBv3ryybNmyn3P+KB9pca4eInPa9evXV3tdccUV1VYWBPYVIC6++OLaLrIr++ijj/a0Yy+hPEhEPxSMJZSb9uu2afO8Dd18jbTmdaCZH9dNNMtGvrLd7bmOoHzeeeeVW2+9tY4v8hzx4IknnqhzHGmBZjtx3QQu3HHHHZU7CxcurA+6FqhmPyYTzT42+x9ou440diIicJ5YCjs1y7RdG6sx33zzzeXxxx8vDz30UI09V155ZRXcyt5yyy213fvuu6+Ks8WLF5ctW7YcmJtu9FogJsqXerV9MKHczYMYf9iiibYyzTRjh9mzZ9fY3s1LMf+qq64qZ5xxRo3fp556aj3qo7y1a9eWb3/721VgSFMPmvcwrua6EWUIc+3ee++99b76ofxPfvKTKpabwkzbypnT6667rs4rAdC813SA/orh4jm/Nd6AfEcagG16jY2dunkzGRhLKDf7alx8+PTTT6++Zm7l67d5vPTSS8v8+fPrOd9sPswqF7YA5+5tTTzzzDNrG8o0y0XdQNTVXzy66KKLDtTBWTHgrLPOqveP8vqMw/iljvvZ9FIm2ptuMF4+cvXVV1dtEeNtwkMvzSfehC260SsOThX6JpQZQF4E3+Z1nAOyMNrRRx99YJFqthPEO+GEE+p1dxtRLq4XLFhQHn744XL//feXc889t9x0000HgkOUHRR0L0xx3bRZHOM8xhxpdlYIlmYAlA9hp7h2zukFissuu6zO++23315thtjgqVZQIX4sZMpq/8Ybb6z3brYX4AzdvBAc9MmxO2+qgVNt/ermXje6bd+dH2jms3czLdowN832nEda8zzaaSLaUibah6jrXDCKMnbmiLgYnzRzQ7BZWATraKd57+Z5sx+ucYdwcPRQOmPGjPqgezAb9gP66Bh26c5rpjfPjSOOFlkLFTs1F7MmmmnO2dAD5OWXX153svgIW7gWdyx6fIgvaTvK8Kde92hbIHBVejNtvGhr52BCGTcij62CD83yrmM8ke+Ih83rZhkPb95GsKM07UnXJ7GISMEvgtdRH/VffD/qqKPK5s2ba91m3+I+fNxcNNcNIJCsJxZxbRmbOsqZmxBmyuIEwc4/xMlzzjmnvqnUD2WmC4zF2uoBw7nxNufB0dgffPDBA3PRDXbq5s1EoldMjvnohjmHGItxeBD1QOOh1dwGL/Td/OFaPCjZIIi578Uffnz22WdXm4QPRL7ycR71QVn3wW11QF/4Pz0Sfg/O2Z2wNzc2NMSK6Ee0OZ2g7/zGZpv1pTkWR/aRbmNlrDdCbDb0QplBpNtp8URPlCGT1w+nnHJK3QVVTqCzwM6cObMGPmRRxy6M+urZ5bQLc9JJJ9V2Bb+TTz65ijkLDyJqS3kTZIcLAd1LsEU86b0mZCqgL5yagBGw2ca4LbqcRr8ttF7hcGgLK5sQIkgWO3hErMBALEuzY8BGTz/9dE1XRvBzT8T1esfOAie2+OiHubeYeYXOpsqxu6dCQojTE8/SetmRvZucQHBE11cBZ5AID+yqz9390ufusbEnjpkf8yJwBp/xEtiErcwPDltcCSS7CubutNNOq/OjHZyVR6CyOfubP3Olfbu7/OP444+vbbs/hJ3dw86IPmj7qaeeqj4kCNt1IwT4gEX9/PPPr3OuvIXSvfWJD5pnQfpzn/tcFSTEhwcmvGjOPwGBL8YY/WAn41SfDfXfPXBUH5v26zfYlA30RZ9xn+94+I4YcNttt1WO67Nx8zu+RgDpt3HjuHlzDnYSBXXpygBfZd/ly5fXtvmbtt1bP9ybjcyLtuTFgmDO3dP8sZe+hz2b6F4gnLMpzja5Oh7wRUKhOz3u0VzwA2zAbsTFBRdcUDlkPGKFOEyAeCDAuUsuuaRyju3ZQwwSt9lb++K9WC9NXBLLV6xYUeOKHTftsaV+hq+pQ2SYW2sBrrrH97///eo75smOM/6bH3XxVTk+Js848BfY0Q6euTCX7qtPxxxzTO2n+jFuc2/+3nrrrSquneufvKaNBh3GLQ6wOc6zD1/Fc3NFWLKBORWT2sZnPrt5M1HAv9jhbXIfYj66+4KH+GgeraX8y0Muv8MD48ABcdAaKpbyWeP+/Oc/X3khPTSJ8bONsZtr9cS+WbNmVZ/k665xRyzBRXwgpiPu6b+jsrjP7o54rK57RDl5/A3Pjd3GHh8yJ3htjN3jng4wLjHGeolbxsUe1j/x0Prmmn2NVcxsG2t3HJxq9EUox0LqcwoktPgi7w9/+MO6UP/4xz+uAdJCrAwife1rX6sBFzEFL4RVHpEZPYQywstXz7mn0LhniL0I+oQaIguObf2cKsQCSRAhj35yekKHoDFediJSCRhPmsYh0HE8C4eAbRFhW2WRju2kWcg4r8VdWfPLIeUTygKBYMnGSMp2FgltERIclv3UtxBqTzsESVsQZW+kDlhYtGk8Ap3rZv5UQ5A1ju5+tQXlCH6C3Le+9a3q4LiK33jIpmz405/+tNocr7/0pS/Vhfub3/xm5bqg7FUx+xFJylrsBXIBV56F3xwQYbgtLx4e2VJfcN18aJ+Q9t0k3mhfeULFvHo4FdC//vWv1wcvviOdv0jDFztjgtcXv/jFurhYcPThe9/7XuUSsemcQPK2x2c60Q92InKMN/xPQMQftgrbTQbYHj8vvPDCakv+IwYI1sSBMbOR2GLM5oUvuLbQeShQBlfxnt3Ygy0JOOnGKU15viTPwkwQs4OjceMUvphjfsaP+Stf4j/6pr2xHjrZuMlL59p23yZXxwNz1dZO+Gu3UNY//SRg8R6PcEPM+upXv1rtiu/iFE56YMNdYzZW4pOP8AH8YQOcxn1xDWfZyuLJvtK/+93v1hiGm+bKPKlD1OiDNQHf3ce847f5cA/3svDiq3UnysZYgiv65YGFr/EH/f7KV75S5zligKNx6gcbsY0+6+9kc/xIEKIs5o2fs6M54jPiibXZGiPeE81twkVaN28mCvv27av+ysbOm3kRX5owHuLSnItT8YYBV6Txe585mH/+zOfMMb0hxn7hC1+oXMQV+gJ/cMJ6rKw4j5vin1gpDac8eEkTS8U7sdMnO9ZMnGBr/bVW4y5bi+3RljWEn8Wa4kEMZwlv4/IwKAb1Eo/TAfotxrAbn2Vva6S1wfhxDefMBz4ac684aP7bNOdUoC9CGVk45g9+8IMDOyGM8+Uvf/lAOif1lOUaMRCJKGBgJEYkJBSIQyhzJMaVT4RYcAQ0kyOgq0s8SENGTmBxiwWsu59TCePjYAIvx+bEFgxi2CLLPo5sgmCc1TxZnKTFmCz6goVAY/yCBfLFU5y6npQFAYu6OsqzjT6ARcz9OC77cXR9jODqiZ3NEb9NKJsXgStgHOadU5gX1838gyEWbNyKeXM8GKJOd3+6wR7s1d2vCFhNaJeNLCSCr3LxACcIE0xsEjuv5tRiT4wTmebEwi9g2v2ygIOAKCDjtzxzjbcCrCDivgQ1fgSf+RU/ItQFYfcgGAgMvPjRj35U76evRKPg7q2D+5lHfSZwzK95MdfuTTy41lb4i0UBJ9hSux6u9CP44p6xc8hueIjHIaYnC+xiznE9HgYEZ3nGJ3boK9sTyuxjvDgQgduYjN+CaQzmSzkPsM7ZnP8Q4K4tbsSxsRMc7mPc2nEfnOCr+hFCWayyuLIZX9KHttgZnG+CfcVI7bvnWH6hbJPTTRijcbfltXHfmPAMZ/QZn4lmnCUw2YEfsSvu4CNeEwaO/MACiediiXhufrRrDDiGb+5v/iyoBKudQXbjC7jG3whbfGZr8c96wZbK4jOO6p++4LQ89z7xxBPrWNyP7dhde+bCHBON5ufYY489sJuN/+zED8U8dmdbPsCPJpvjRwL9Nna2wGP2xHtrhJjD7uYwdmSNta0daPJsIqF/+K0fwW1o3rO7L+aJTxkLDonN1hw88OCGm/hnjOY9HpBtpuGHTQvziMviOG5pi42Ibpzk72KgByhCWpp72tjDQz6gPX2OfonR1nJtqadd66f+6AP7Ko9z7mudNhZpOM5veo15OoCtxT7j5Tu0Bt9nA/GVvfgvvplv5dvaMTcjIZQtLIIPYvhBGk9yyILUgo586UiDUAxowReUGdAOVwjleFUtzZOvo3JIBghHVAhy6jhHdAKzTdxNNfRJ34yB81l4BXcE46zS2MaYlVFHMOGABC0ScSbjJIAsdMZLKAvmsVvNnsSSIMG51UNe92A3AdNuDpt5mo8dOUFBG4SfBVYf2mypD/IFnkAIDH1xdN3MPxRYqIyTTfTRAncoUNd4x7oncaT97jLqdwco1zhMbLELByZg2ZxNLLZsIkCzt3mUj78EKxtqV9AmwggN3NWeuRTUXdvJsbNnsRdE/Hg4FDj5k344Cvx2TVzzW0Hf7rJFXX/4AUFCrAjoAhSxQLQZhyNRI3gRdc7NtXJ8kIDAEfcmQHBCexYj9+fv+qTf/NbDF/7goXba4kG/YVz6Y+FhAw8JBB5fMk8WO/k4zg/MIY6YA/xkdxw2v2IQwaeuMgQGEFHy8cY9CA7xT555dY5D+kBwsBs+sFsslHa+cE79tp0Uc6qs+wefldNH99O++1uAzH23X8gbi/vawf22dG11c5+d2JJ4tTOLTzhh3vGMWCUKjB931BGbfWpkjIQEG4v3bIHn/MMPnxHT2Y94thaoq44Y1BTKfAtXCRg2FIcIF/HFA6p5wXf31T5f00dcl69fbM0n2YlQthNNmIuP5ooPhVDGJ3wWI9lEHMZxY2WnXov7IEL/jT2EMpuxlzzX0gkWccxc8/G2NmwqNLk2kWBTvMXFJqf5Ab/s5iWYJ5wwl+KTOGTObcLx9RBm4iM+mWu+z7+laVf76otn4h2u0hp4yp/NN37gBQ5K4894a10Uh92nuSayXwhl66x60qznHspwi1/po/uq6xzf9Bffu9fY6QS+0S2U+Y85FBtDKMvHqV5jHQmhjMSIZCcCGQRVC7AAJuBYpAU8QkKAkma3maMKxIIgUvuWyA6BQGpXTJuCNpGtLQ6PhMjH4QUB5RGSKLRwDGpQYzdEMV4LCVIRhhYHizun4bQW3SBVPOVyVou+wMJOyssnsJCQfdnU4sTGFhbOyzbIJ51N2Q2J3Z8AE3jMgXsjOIFhYY1dMDxpsyeyI3bA/BufMSnvupl/KFBfsLToaz/acOwFXPAwwRbOu9sMKMNx1WmmtzmtcuxkXsyDMoKrBdk8EAuCnIdAPAcBVP9DWLAbAWDHgG19GiH4Wsj5AS4TdhZsc0d0aNNOHM7rp74YE064f+wACvBEAp+IhZA4cF9zp79EiPmW556EPB/BFf6EQ+7vvoK2fuCPRUeetzfS+btdG3kWNEe88BZkrN2BfsMYiT1ct+BbBAkhCx8R5yge8BMPLsrrP38hyPgFrvItgdx8aYc/Gp8yFmLlLeh4wE/4EnvayTZ2c6cPXumba1CWL2nPwmwOzA1fbhMAuBa8NN/S3BMi1uIvKBPcV48NlOnmdcC4+XJ3uvL6T2g0+6I8W+BbvD4Vd4zduHGPOGU/PMIHwkDMZwO8Vodd2JLYxs2I1R4KiWMLKHFid9MnHISNc7xWjo8REB748JYtPeApx0fYU9vylSOEpLlXm1AmuK1HsY64l/7zkbB5+K08c2gue8W/QQaOGbs5wFNzZzzyxHz2jwc5ZZo8ayJ41Q+wOX+MuN3Mw+vuvgBumksxC2dsNKhvbvk5f+ez4q41TgzASzykS8Q1XJbvPGKiWPaNb3yjpol/eC8m4JvYwRfk4TydIh42OaH/RLH1AmfETrFcW9LC38Rx6634T3jri3W6zfbTCWzBT+INtTkwVnnWPnrGWiNOWkPZr23M7DT0QpmxGICxEMUCg8SCDhFBKFikOS3iEWqCpoUdcQRNAViaYCjoIizRJCCCHTQLWAR7wgOBiRPiQtogk04AYydjE5TZywIvcHFIY7PIWygIMvYTHGLxtbh4EAiHk88hkZOzW/TZxKJkAUVYdc2ZfPewWEu38CCxOtoUaDxJWwzZUHmLoIW01+KO1IH45pH4EBRcN/MPB+wiiLbltQGX2WmsexIsbWX0tXtsxqus4GcezBm+CsSCM2HgIc6iLnhKF3DZLUSW++E8vluIcFs9+dpQ37y5PwEkoBIA5sQcmTMB2A9uu7/5ZmMLPoGgPfdyra42zaHga3dDIBaY+JtFAbcskPotiOOGds21+/E110SHsQf/1AlbCPAe1qba19zbgwPfwWf91H8Lo8Vf3DEu4plPhO8R/3zJQySuKkdomS+xxFywt3lST9t8yX3MGztpwzWeqqO9aJMo5UPmgU+xkwcpAs3923xJmeClOcfn2P2SJs99iQRz4aFGmnr6K6/J6Saive509flwt1BuxiicEbs9jOE5vnkAwys2ICSIUmniON6yg3LitfkQy/GPwIgYFZsB0vE0HuCIG/nhHzEXhJDYz0fMhbmxo8jG/AVPxSr3sBhbe4wt7KJf/M89tanP4b/GyQfxCXfMqzVIDI70pn2mA8yhfrMzn2dP45Jn7vDTHOOlNdZawn+621GmmzcTBRz2oI1/zpt5bTEZgpvm3Fs6/s8fxCR+bn3EKfMnRolZ1kL3wDH8EPNoFJt1juZcO9ZDvKUlrJPuxbfFQtzBG3W1zTf5Ht+KGC0O61ezLXwVE3DRmPgRnko3B8GvtpgwnWBOIn7SEsYp9snDO2ugeZLPd2MjrLsdNjX//HYQ0BehDNKRnzDQvmtByrUA51w5hpLPuJGG2MhoMUBEi5Ay8hzV0TYBFQ4jOHtC5vyCZa9+DRL03fiMM66Niy1COLNJM5+jyweOqDziyVfO2KWzkzZAWpRjK+UEBU922teW8qCuNPZXnh0t7ERWG6EhFqJABDj3dBwv4dUTfAgO/Q6RMBaMQT/HuicbtjmitLbxARvFPLCNuXGOi02uguuog6Nsqhy7Goc+ErDyzY3xOZpf9laHn7A/G1rE7AaZA+2op33lQZqg5N4eliwcRAbBLGhrJ/qmXf7FBu6lLf6oTMx59MOYlFev6U/EOCFDbBiP8pE3lWArfI/+6D9IM66wpzxlwk+Ucc7u5si5NDZyrUzTl5RzNHZzZxE2n+zEnsrHHEljV22qY+ElEvlM9LuJ4CWuu7d78QF9CZ7KVz92h+PaPZVtcroJefrQnR713aO7P+wkHWeCC+yIb3ijHgFLDHjYiHHjC3upg5/RdnDV2JQ1H9E+uxmv9tWVr7/GqQy4p7lR1rX60hyV1199jDTt2RG0NgARrq7766O5Cf91T/WlmyPikiCKtKZdphvYgl2Cv9JcSzc+9mAHad11Ade7eTOR6HWPXkIZ9NtY9Ns5PuAK/uACnzTX8lwrax6d42DYIriCA8o6x0fXoA774LK6+slO7iXPfcRn8KDRrBdtuU+0r762vNn1cKat6c6vJiJ+OvKp4BQbsGPY2Nwo010fRkYogzyiBTGa18BYEPnQK029aCPSpTXvrRxHiTYifdAR44vrGBfEWLrHGeOPPMeoG3WaNuou52iXJBa6sCl01xdMLC7h+NGPJrTRxo2JAMEQC+dECeVeGEsohz3iPGzZxl/n3XWC85HuOuYk6spr5of4IUq9vrfQs4P0KBv19V17djzsuHmS92ZGHbZQDrTb1pdoJ9KbeW3zHr7WnT6V0M9mX+Ma9BWa+THmyI9j1O0u01YOvAWzaDZ9Keo7xrUFg2gba2GMBQJikW/jvTQ+yT/twgVXxhLKveBe6pvTtj7pQ5M3zWv1PcjZ6eWnTWFjjMoYf1s7YZdID9u5DrtFuWb9KNe8R5Tvvq8jsct/wMMdG2tL2WgL1JMWmI7rSS8YW4wlxtl9zga9xiqvmzeTgbGEMui/vsV1jEF6cCDSY6zO5TXLOUZ+s25bmuuwF9ilD37ZqJOnbK+2on7b+bDAWMO+Mb7u87BlG0ZKKE8mTECgLT/xbjRJezAcrKxFto0bEwGCwP3tGhyK4/RLKE8ljD/Qlg/mR+Cxu+c1ss8m7C4T1mPVGw/Czw6VP8MO9j1UWxysbCwQjsR3rzcy/CJ2xPotlMeCeoSo1/aDujPG3vp1OPOkXKAtf9QgtrRxp984mFAeBDT5dTj8T371RgrlxNChn0I5RAOhfCgiYBiFcgTUgwXVyI/XiIRUBuLpBRyMh0NcbuMp4Le5JY6VnyqhDHhGJI+3/mTgUPwn0RsplMdG8Cs5NjFIoZwYOvRTKIPFn1AWNNvymxhGoXw4EKgtapC+Of0QQtk8etjpxWPp5hjfQ+hOlVAOzrXlJYYDKZQTk4kUyomhQ7+FMuDooTjPqAvlxPRGCGXnBxPK/G4QhHJi+JFCOTGZSKGcGDqkUE4kJgYplBODiBTKiclECuXE0CGFciIxMUihnBhEpFBOTCZSKCeGDimUE4mJQQrlxCAihXJiMjGUQjl+2zMxmhgmodw2vkRiohALQVseTKVQHqtfidHGVArltv4khhtDJ5Q5ELGcGF0Mi1AWlNvGl0hMFIhRO7dteYCDUyGU4yGxrU+JhJjaxp1+A5/b+pMYboiDbXyYKuSnF4kjxrAIZe23jS+RmCzgYH56kRg05KcXicnEoaz1k4kUyokjRgrlRGJikEI5MYhIoZyYTKRQTgwdUignEhODFMqJQUQK5cRkIoVyYuiQQjmRmBikUE4MIlIoJyYTKZQTQ4cUyonExCCFcmIQkUI5MZlIoXwY4JwpxH8ebOI31NvypgIplA8N+jVI85YYPF8aZKHMTmJyW15iYhF/gaQtbyowrELZuDImD2YcHM8a3i8MrFA2afq1bdu2JHIDbMEmO3bsOCy7NB1BcGgueM6JuJhL5VxHGeljzXMK5YODCHnqqafK7t27k88DAvNAjB6uLzUXV+dN3whfinzHbl8a616DKpT1eefOnWXLli2t+YeDsMXBcLC4M6wIW5v/sbjSjaa9HJt2dt3kITS5CmPZWtk27vQb/RTKxrx169bD9v9hg7H3Kw5GmnKHGwfHs4b3CwMrlBnq1ltvLffdd19fBcx0A6KtWrWqrF+/vhKvrUw3zNGmTZtqUFDn8ccfr5AOjz32WFmxYkXNt2A+//zz9R4PPvhgrf/kk09WjvSa6xTKY4Pddu3aVebPn1+efvrpA8EiMbUwDytXrqy+cDi+tGHDhvqwqv4jjzxSNm/efGBO165dW9uUr01H19Llb9y4sS5KvXwJBwdRKBuLcS9cuLAucIezoAbU2bNnT7X3wR4Y2Ycoh162GlaEre++++5DjhVshAtitfoeytetW1fztIGjYvwTTzxxoM01a9aUe+65p8Z73FG3l63VaeNOv9EvoYx7xnT99ddXH8b/tnKjAHY43DjIfmLZweKgGBZxENciDuKhtLHi4HjW8H6hb0KZIRnIgCGCIkIK5jEhDCuNQziP8q4XL15c7r333tq37vLKRHtR1/V0QDhp85wdjSXGGemunUe+sQqgiMn+zXbkg/OoH9e33357XXSI4auvvrosX7682tA1OwuiymiLSF62bFl9UCGiBVwkj3t1wz26eTHRmGqhHLZkf+0TFebEtXphc3mulXUe+XaIrrjiigPiR91m+bhuttfWj8S7wW7BS+eBsH+kOwd2jbmEO+64oy4Q5r/ZTrN+1DE3dl2WLl1axYVgb07vv//+Wl87S5YsKXfeeWf1J3Uc+Zo6yj/00EP14T/a7oa5HzShbBz6ZGGcN2/eAd6yh3pRJrjrmg3jOuyvb4TyzTffXLZv317zQDltun+0o0/sxLbuAb3WjV62nGroY/M87KbfzoNX0tjIdYxT3MWj5pib9ZWPdiPNuiBWizUE4A033FDLeUi/5ZZbKhcdg7vmwT3EduvAbbfd1vMBxn3auNNvmN/uvgT0qZsD+h6cChvJC66pIy/Or7322rrp5Md1s7xjtAdtdhkUGGv033mAfcI2rp3HddjP2PDgUOOg8jgWcdBDnTi4evXqylfXEQfvuuuu2k7EQZoi4iDfjra74R69Yt9UoC9CmUEFwkcffbQaSsATBBmFwGNgQde1J19Gs2BxViKN48pj1BtvvLG2wfhR3lMJAe1eDz/8cBV402Wnjr08SRGt+otoxmSRs4PLPmzFfp7wI/CZI0T01MZGsUsVT3HaZEdpgp06dpEFgbC5edEmEcymSK1NbYW9OYuy7o/QyK1tAVbAbQsWnKmNGxOJqRTKxhy8wzU2NGZzh7fsRwCweXBeWRy3+Jgj7RAZETzUZU+8Vl8Z19oLf2mzdeId8CV+I27wAZzlVzjwwAMP1LlQThlcDt8yL3gvne3FG7tr5lg7Yon6fEf98EXt8VFziGN8hV/EAmFeteMe0s0pXzKv2pKvbWn40ja/ODhIQpk93MOYjYmwMHbjwG3xSV3XfIMtjY3NxA5xWr/wXB7bi1Pyncu3iLKRdsyfdvkPe7Mxm3SvG2yrjLLmRj+7+z5VMK9isPjLpuDcmNkLh/i/eGEc1jBz7Rp/iGR8YU95wWM2Uj/sx844G3YKEWy+iGb2Yhe2d86+bM2WIar1Mx5cIraxb/eYtNPGnX6jl1Dm+7gS67/x6zeb4Jk4yhbKBvfEVfZSnn3Z47rrrqt2w29xxNzhGBGnbe2xmThxsLcgU4XuOBj6IuJgxLGIg+YdJ5UXu9jE+OgK/Att0hYH8bgZB5XDV/xiM/FHunbYTjqO4xh+a4s99U2eMm0aciSEMgJyxnPPPbfuVl500UXVuCbmkksuKYsWLSpXXXVV3Z1xftlll5VrrrmmzJo1qwrjCy+8sBpUEIy0uXPnVkN7Sp45c2adDG16nS0N4U3+oIsLxEI2opRjC/aII40jIw9HZT+LEgIjrvIWHmPm9Mbr6MlNAEV2iw6bsR1bs43FWVB0D/dzf/fUliAkz3Us9NokpPWVYyG49vUrHKh7TOa7jRsTCRydCqGMT8bnlfOcOXPq0dMzrrH9lVdeWcFuAsJ55513gMM4jtcEsoAwe/bseq08u5oz5eWbc8HdvNrxF6DaFqzEO2AfC6SFz9yxGR8IAWYBxFkBXJyxKFgozBuumy9+IX7wA3Niniys4YvKWAj4kjnmNxYJ9wZpyrp/CA184a/K8SXlzLX+8CX34Vu9FohBEcoRS8UhvMX/yy+/vKbh+E033VS5a8x2MBcsWFDHbUFlU36C0xbmGTNmHNi9w3HxzrqgntjOru6vPfxnU7azePdaN9RzT/fpteBOBdgt5tkcmpeIn7jIJo44of/GSZSI9cEbdsI542dnNib8oj5+swP7ifmu1XV/MVrbeI57BB9+m2c+EjzGbWXxEo+ky8eF7jEp18adfqOXUJbOLmIqPuEmIcuGeIGv7M9GNIQyOKQc7lx88cVVT+DkpZdeWudBHeWVkW8etKe8POdttplqmGMxK+KgOBdxsBnHcMf65Yhv5h2XxFDxkE/jiXT+JFZqpxkH2QlPcDa44v54qqx5wUf3lqdP7OiIQ9rBU/6Bn3yjTVMYR6/YNxXom1D21IuYsYBwTEfCWT0TZhLD8CbunHPOqeRVlrEZlDGVJy60qbyJlCYYC9wm6YwzzqjBwaR192eQwF7GyIktKAhKFCMOYho3IhOvxmk8sXMiAKuPzGzGzkgsiAaxET+EtyAqHVHZWlvqeNpjY6RW1v2d64sHEHnuhRfmSxscgzO22VebwYd+QV8OxXmU08fxOJn2u8cWQtkCzj6ucc6c4Lend/bHTwuSAGuOBGCB3OLvQdAiKQALShZP5/h8wQUX1DYsgh4A3YNQcA/jcL/uPiX2g535EI5a4IKjzh35mHmywLGreXTkC4Kz+rgu4DtXXhxSny/xP3PEP8QhZcJfzA2+aFt72hbfIgaJXRYO/uhe0vUTH+SFSOkekzYHRSgbhzjioY8IYSdClW3PP//8ek3sspv0GKuxETDmRhv8glhhV+BL7KuuPjsndrXn6N76w07s27ZuEJHmgn8QRr3sOVXQF/awsQHiqvSmeGFHa5jYzw6EStiMKDFm53gUnBVrnOOmOgRg2DDsH3MQQpkPWC/Yz1qgL8p6AAnei08hDNm+bTxNzkwWxhLKtIC+8xm88XAhbrIdm4q7bB9c5OvSjE+8Zn88MmbjI5j5tvI46z44au1lZ7FduUGLyREHzXfEQeuMNcUYccXc4oD4x158jT3UBecEtvGxKW5EHMVV9T3wyos46Bq/tKdtPHXOXvjHzs7pM+0HL7Uh1oQAl949Ju2MZw3vF/oqlJHLDyIG2RjNj+AHxARic3bkVZfBBUn5zv0QfSZZeRNkMeEUArAnPiA42ow+aNBHY2EjYzR24lgAEziNWXATEI2TzdhQcGAf52xgURTwkFl55+yjHQucozKcQvtIDU2h3GtHWTDAC87nXHlBR/3u8ehTGzcmElMplLWHX4KnMgI0u1mg5XnwwUWBRjltWeTMm3zC1wJHPBM/2lVXGxZ+tiekTjvttBq4lReIpgOXpxriD97jtBjDvuyOy+aCj/GneBgUnC0iOGtulBN/zCvemyfl2V99vmMB1qZ5VT78IHyRn6rPl9WXpy8Wl1ggzK8FAp/kEUy9FohBEcrS2M1DnXaJMXGYTXBVPMdVZdhQOfblB4SL+mzOb/iMc4uvOmKWXTr3scgT2uyjfX1yP/Zk317rhnlxD+2xJ7s3+z+V0Bcxmo/jEs6wEY7pv7gaO3nsgjchQnBA2YjfOCx+s7+6+GP8Hupc4xF7Ku8cuoWyPpjnEMN4iZPKElJ4xIf0l027x6NcN28mA2zT3RdgIw8WfM+4YqcUB/mNfA9k0sRdfmdtY5Mob06st/jL5+gPPBODiUxctQGHpxDrYlt/phohdiMO0kLmGb/4D59kKz7DrvggjX3NdzMOaifiYLM+Pmsj6msr4mAIZe3RbupLx0/xIniKl/jGjmJFxMvu8eiHeWpyYSrRd6G8b9++6nwMxTCM6EdAlM7hEVYfBEt1kdVkN8sLhiZJeYGXETmAdp27b3egH1QgBudkH4SzwHFY/Uc4BA+hbGyCm3EGqeUjrWvBkT1iV43dCQcElKeMNHXcF0IoC8JI7J5BcM7C9trShnNzHORH9u7x6FMbNyYS+HEozqOcMY7HybTfPbamUDYnxiqQspsdCHPmnoQvu4bwNR/mj71wV4AQxB3tztmNFsSV16Y27C7jgn5MFy5PNdjOvJgfPLYzZgHFWfw3TyGUzYvFjj85NzchfLXDb/iKuYv6sbiISeqIWeYZJ9ThV8rI48t8EWeIHnPNb7yRcQ/t67OFQj/bfMncD9KOMgFqh02/jA2XxR7cZyNljM+5mMEP2M+RHbRvfvBcGyGUiT7tEiRs4UHT/BErMQaxh33Zq23dMKfuTxANmlA2t+aPMAPCBSfEUAJVmliLf+xiB88aIDaIxfgS8RvfcJg9jBOvjF8d6wI7N2M1OyjjHvrB1uzX5Cgb4rU5N192YPHYfXChbTxNzkwWjL+7L8Bm/Fx/lcMv48I7Y9df8RZX44EsuBTlPajQELHOKs//xXfzZQNETNYe2w1yTDbn/IymME4PUfiED+acncCcG4tz3HOubnccFCPxArfksVFTKOMPWykPfDdipPIRB9nbpp1jxEHaQ7/4w1hxsFfsmwr0TSgzNDISyiaK6GUwZGQ0r0DcVxmT5zx2IRhdeUHAaz9OHq+5lRc4GNHRqxFl3cNEmJzu/gwaEMNYLA4Wcv0W+AincP4IjgKFBVA+cto54AiIKA/p2E+QRFTkQ1SBU54y6kQQZV8EZ1tkZHcBVR1lBAPOQFCwq8VIWgT7Nvtqs40bEwn9PBTnUY7jj8fJtN89NuPVnh0xc2KsHujYVyDBR4GYrQVe54JFzKO5Vt7iiMOCMAhiUV77ymmLiMB3c9oWQBLvBhtZFMQVPkGI8RV+ZdEwZ/xCnnkRqGNuBGlxg63NK59wzofsoKgvjvEBMQlHmg+d6vDJWCCIGHUtNPxJ35TlS2IeP9Q/vHFs8yUcHBShLF6ITcQrgYrHYpY0R/YRM/iC8RpniJPgObuZC9w2NuMO//GpnTbEfbGGMCHAY974gfnptW6YU/Ogf8Sg82b/pxrsh2ugb3hB/DqGUHYd/WZLNmQ/YwuhjIP4iktRH4cIZTZSF1dwj9A2l2zGD+RJC1sq4+GkyVXp0b94+IgxBHC5jTv9xlhCGSf5nnLiaOzQe3DCIfl8Ij7n4avsrjxusr9jPNwppzw+ObpHpJsbQnRQY7J+8YuIg3zJ/Itj7ODIVrjFpvFgxj9xgd1CKOMgHkQcVJ8PaxcP2Q8n2VN5wE1tjRUHrZF82DzF56djxcHxrOH9Ql+EsjQTEQsQp2UcDsjAJsiEuTYhSMlwiKiuJzjliQsTY8IjKCpvYQzCEnUm0tH1dBDKAWMKYWcRRWRkNT72M372AAtLCGX2UY8NkNKrS2XVZx8CgKiVp0x8v8TO5kP7FhbtspeAgcjq6YtAyp5EgXxzIVA4b7OvNtu4MZEw3kNxnrDneJxM+91jA3YK3jnHUw7OxpydbfDXdfDUPJoT9pLGpvxB4DAX+mle5CljnswPwSA485ngeKI32I5wMyfsz2b4LG6wN5vyl2bMEHsEdT4mTxnzyifMKx+L+uYJlMNzc2rO7cCZZ/MkL9o2n/yQcJGvT9qK2ObesaPS5ks4OChCGYwrHgrFCLw2rkgjwPTTQ764bqzqsJN8IizWAulEGxvELjLf0QY7Gbu5i4XZfLiP+7WtG8Ye/qi+8+7+TyX0B5dAn/WXfXDEuNjNsen/uGM8+CpPOvuxl/Lyoz6uspF7aYMd3ctcijdsKS/mw/zJd22u3Ud/lNWW+XKPNjuq08adfqOXUNYfnOJ7bMsmOIBf/EuMZUOxwUOXOk0dErqD/diFxghbsot47h5iNI7KD9s1+zEoGCsOhqZgq/AZ5Y3H2HGJbWLu2QEn5DfrAx6xHz4246C2u+OgGMvG8rvjIPsT5L3sORJCGUxE5DXPHQNxLT/Oo3xgrPKODN1Mm05o9jvO4xjoLtud153WVl+aJ8MQzs287rajTWmA5AINZ+lFaoG5jRsTCRydKqEMYaPmedgoriOtrXwcm2iW786PuolDQ9NmcR7HgLy29GYejFUfLAAWjWZ+s+1I707jPyEAx1ogBkkoQ/Q/0J0WNmhet+VFe9FvO8uEDX9Vptlu1OtOj3aiTPf5oKHZZ32Mvsax2e/u9MhrXgeizTjiE/FBiESMj7wo15YG7E8oediJclEmoM027vQbvYQyNPsa5zHGQOQ5Nsfv2F22mecY54G41yCj2c84j2Ogu2x3XpwfrH6/4+B41vB+oW9CeSyE8Q4VByt/uO1NVxzJOD1tWpTa8mCstj019lpEYRSEci+w2+HMy8HKH257ifFhvDZWjx/xp7b8g4EvtaUHBlEoQ5u9urnaXaY7P2BxDKHMHt2LZVudsdIT+2H+xhvjg9O9ygyiUO4FYzgcrhys/OG2N50w3nGp1+84OJ41vF+YEqGcmHwcibMfrO4oC+XE6KGfvjSoQnkiYfwWSq/BxxJnicPDwbg1Fg5WdzoJ5cTkoJ98S6GcGDqkUE4kJgajIJQDvV67JgYPKZQTk4kUyomhQwrlRGJiMEpCOTF9kEI5MZlIoZwYOqRQTiQmBimUE4OIFMqJyUQK5cTQIYVyIjExSKGcGESkUE5MJlIoJ4YOKZQTiYlBCuXEICKFcmIykUI5MXRIoZxITAxSKCcGESmUE5OJoRTK8ac+EqOJYRHKgnLb+BKJiYJFgCBtywMcnCqh3NafRALE1Dbu9Bv4nBpj9GCtb+PDVCGFcuKIkUI5kTg0xI5JWx5MhVAG9RKJsdDGm34jY/JoYih3lCP4J0YTwyKUtd82vkRisoCDUyGUE4lBBKHc7SOJ4UcK5cTQIYVyIjExSKGcSLyDFMqjiRTKiaFDCuVEYmKQQjmReAcplEcTKZQTQ4cUyonExCCFciLxDlIojyZGSij7KPtQhHR8wN2Wl+gPJtLeKZQnHr3m51B95VDndyJ5kDhypFBOJN5BCuXJwaCtAyMjlMPwO3fuHJi/z5mivT9IoTw+HIxrE83FfPszOTiSOUuhnEi8gxTKgwvrScS65nlc+9vbkeboGtrKd2NkhDKD3HXXXeXyyy8vW7duPWCgbhA1jzzySLnvvvvqeVuZiQCxvmvXrta8Jnbv3l327NnTmteNIENb3iBDv9euXVu2bNnSOn+95rQXUigfPgSJNq7h0xNPPFFWrlxZr5WJPON68MEHy0MPPdTTV9R/7LHHyqpVq36Om/gfD63yzP+dd95Zr8cKWonDgznrtTnAtw62QKRQTiT2I4Vy/yEmPfzww2Xz5s2HvPaLYTZBrSnWkh07dtRr6drYtm1bXV/ib8ar41pMk//888+PqbNGQigzHEPMnTu3LuqMaWGXHkZzdC2wr1ixoixevPhd7UU+NNsOxIQ024zrZp9cW0RM5G233VaP0W7UjTqO+vL4448f6C90388RjNFDQIiWKB/9GUToN3vccccddZzOYzz6jdj44DwQeW3tgTa6eTHRGASh3ORD87ppJ9eOvepEGffycLhmzZp3cU06MXzdddeVDRs2VMErXz0CCofBAhJ1Ym4cjeP++++v9c1LpAtKt99+e7WPOuoT5FdeeeWBMtHHxPjAhvDAAw+Up59+utrZvEHksb+56GVv87Jv3756nkI5Meo4mFCOeBr+FNfhc3Euz/VY5V07B+fNa+WjvbiOMoOA6F/zHIyrOf5Ii2vn1hd64NFHH632lt7M765v/HTC3XffXWPO9u3byw033FC1nvWLSF66dGm56aabqgCXZjPU9a233lrzxUj305a2u6HOeNbwfqFvQpkRZs+eXY0oiDMOo4bxLRZEpuM999xThTLhSchGvsXGYhET14R85ZWJpxZ1PbV0P9kYn37YpVNGee3K05Y21EGY1atXlyeffLL2WZl4AlLHTpG23NdEEjGLFi2qdY057tXW30GAfukrG3AMQky/2QaMU/+R2Vy59pATduo1LrZq48ZEQr8OxXmU64dQDi41OcxmOBw7tWwbnJavnPLBIcAhZRzt6vMT5fRbWX0QcASeTZs21XP2VR7vBKDly5fXNHUg+ue++sifbrzxxlom+q9/0qMvygli11xzTc3vNbeJw4dFwVw6xwm2Zl/nHnLEl+46gdihca5eLx6HODb/ce6eKZQTw4SxhLI4JgbzgYhfsUZb48TDiMfyHbvLR1pz/eN3zpXhU/SBcmKofGlRf1CgfzHO0CpgLGwR4491JOrId7RBuG7duhqjop3u+tqVJ0Zt3Lix6gTtWMeuvfbaukEj/tgAIqLtUN9yyy3Vto7qyFPOJo11TLvQHAsMvVA2aIH+5ptvLj/4wQ/KsmXLqnidN29e3WG2iBAyFvyLLrqoThDDzZo1q5a5+uqrD0zEVVddVS677LIq6NSJ9k2Y9k0OMU4AWCi8Rr700kvrbpoyFiT17ZrZPbWjhuREOYHgsxALl37Nnz+/tu9zEfc2yVdccUUtQ7CAMvqkPe3I//GPf1zvH/dy/7FejU8VQhwZrzkh8I2RcHKNyMZoh/OSSy6pRFfe/LA1Z+ie6wDbt3FjIoGjUyWU8ZltzLs59mmDAIwLuLN+/frK4QULFtTrJUuW1D4ohz94or62CGCc9UCmjuCkLdyfM2dO5TofIXTjEwqcx2n3nzlzZp0b84bD+GZuzIE5dH/te3qP8agvwPE5Qevee++t9dxPm/KhOebE+MCO5tXi6mgxwAccESPY3TzxrRDEzboWsaeeeqpCjLG73MblEMf47txcK59COTFM6CWU+Y64KQaKYx76+ZQYHDqCkBML+Zu1S/yzhl988cXVN2kEvik+W8PFXvFdXOe/NINr+dZKiJhvg2NQ1nj9oFmMSRywbtAgxsMGdI+4Yl2x/tM4xK+1hRaSbhORLZSPz/a041od9a1htAKdZaNNOTGIuFafCBZ/3M+95alrjWN7c6AN+e5PV2i3TVccylo/mejrjrJFwcJs0WccxkQ0EyMPEZFbOqGsHxZu2/IMydgmr7k7Fgs6wWCyEAJxkR5Z1HFtkolBE0Wog7YdzzvvvFoPSZxzAP1R372Ixeuvv76KRMRYuHBhTTvnnHNqfc6JJBZB4yFCpLlGCvfX/17CcirAmQgkfWRnYzJeDyUWZcKNA7GFsSMwG3EKT38EnrlqG5O5aePGREKfD8V5lJtIoYxv+Eyosh1OmGt8FowFazbEtbj2oIHbgjaeCBLqs7GgSzCxr0BB9KqPt9rEP/6Bm8qr61qbgrcjTuKcOubHXGrTg6e51D/3jkXGGJTHVYIN1/GUb1g0zGn4VWL8YENgV37kYUUsM08Wa9zEA3MV5bvbwEF8E2dwyCJkHvG5CZ/hKKtN5+YQP9p4nUhMV/QSytYc2oBfEWg2JPiLNdq6FhsUfE/M9BApPoqXNhaIa75z7rnnVn+VL34Tm9rlu9Y8R37FD21OaE9MFu9Dk0w1Il7ot5hiHff5Hu1lPbJueZCgs6wv1nH6zPqjnrVImdAGxqyM8cqXbr2wDnnQ0GbYkQ3MkXWOvhCT2JMgluc8dId+Wp/c13pk7rQvvXtMh7LWTyb6JpQZxI6viTv//PPrguzpDBjIZKjvCYRYMIF+5MW2PcFGEHtCDFJqj5E5ASMTGc5NtqdCouGMM86oE+deSO4e8gkF7RLM2iBECAo/6iGTSeR4BDTBy8nc34IXZZtPVMbBBpwQsfRTPeJyUJ44wZxwcEKJ3RFXH/WZAxFmnh7Ziw2Mg3CzsBuvwCCvjdTKNjnRD+DooTiPchMplM0trsyYMaNywdwKsiFeBSVl8AAf/AiwAoQ6AjbuCzD4jDeEDU7iOs4KPOrgUDxImg+cI4rNg2s/5kgb5o3PhF8JRvzND/66V4wnfEYf9NEYBDfz737yoXvsicND2NGcWShwAB/Z3rxZjPmWBazNj6INR2UsyuaIsLZQx6tPcC5NPHPON8U43GrjdiIxHdEmlPlIrLkXXHBBXc+dE3PErnr8zBonzlq/+ZC8EGZipjgrPvMbOO200w60JVaKv2I88awOAS6uXnjhhbVeaJKpBnuIAWKMccY6Ln7Y2KFtaB1rBHErRljzXbOvcVjjaQPX1hv6zXijPluwL23GvtKVt9aqbx0Loez+TaFsPRIT2VC8Mjf6HeXadNLICGUGQExCFpkZkpEsAAxkkWcIRDZpjOdHHoIjt6ci4s5iHqRECguFfALDzi2BYDLiFQnxYEI5g7E1hbJ+2XFDLHUIEP0gBBGBeCEmOANyIJ66zolGZZGKQIonNDbwisdCaILjFfqgOBIgI1vaaY8xeAInujwg2D1mezb1ZKq8a7YgymLBb2vbONu4MZFw/0NxHuUmWij7VssbD4EAf9hIeuxc4CubhVDGCXwWcL2JUIeo8aDF3l6nh1DGI0FZ2+akl1AO/3DufriI4/wKz91bO34EdgG922fkKx9CWf/5UZRpjjtx+GBDMGfihiM+ioEhmvGkl1BWV1n5ypof/mpBci3dTg84F2+UcS0OmtM2XicS0xW9hLKjNVfMtObzD+sZLaBObEKIgXRICGUC0PogZlr3lOdzfMnmmDRlXYvx8QYu3iRGTFZ/0Nb3EKTWGPawhhiva2uCfDvJ1h5rh2vnxmEdkudceVqIXmBb64360hzNC3uwlfIQQll71ihzIV3cs55piz3ZVr5za5r29b17PCMjlBmEcJVPICCugI6AnmqI2QjyjN7cUQbktJtiwW+SkpNY9LWNBBYIDmAyPQ0SdV6/ILT7mihPV8qqo1+xo0xc2MkzIUSEidcPAt01wuivPsbus7LuBe5BKBFSHA7ZkIJQJq7bbDNVQEbjFVjYyIOBRRhZzUM8NMhj8xgzUhsLcchmEaSaMDdt3JhI4OhUCGXjxWdBkrOzC1vgE17hgSduPMIvOxa4zbZEqIcpfSJsnOOy4MCmeC6wEa4Csvad46H2BCVlXEvHRX6hnHvxI/NJkJtD93V/XMTfWGTCZ/DeffBTUDS3Fhs8bZvXxOGBDUHMMR8ReyzE5pFv8TGLSJTvbsOcAb542Dbn0i1ATeArnms/rgdpYUkkJgJtQhmsOdYp63Vs5PArGw3q8DNiUDlxT8wV68Q8cVMcFSvFUbGYL4qx1khtgTr8zz2s/fLdQ9t2mtvWi6mCWEDbWF+s28113BpPxBobsSteWAeMQ/wwflpHGntZk2gg+VGfPrAOacO8aM/6pDywtfVNnrq0EP1mrbJJZNPNmkhQ658+2zRg3zadNBJCWRoxwcDO7aiZQORkTGmMZIFnOMRlaIZxbXeToS3osQvHcCbEUX1t67dJsAgRLoQJ0UwkWKjcVxucx6ITO6bKEw4m3n0QBzmUce2IdBxDfbuC0pRR1kQjjsWMOFHHvTidMSJK247RVILNkN7ibRzAfhyHLeOpU1nnxsTZnMvnIHbh2xZ389LGjYmEvh6K8yg3kUIZzCU+4YP5jadrnAbBU0DwFkIZAUYfYjcCh3Cc/TygCNg4jkPScV45gpu9tcf+Hrr4BZvbQfZQRrDjrT4I1uq4tzJ47V6EcgSt8Bn55tGcmkt1Q/zLa5vXxOEh7GgRsQg7srcHaXPsaN5iHvhkdxvikjyLtFhlDr0qxecmpJlXfB8P1xOJ6YBeQllM5mNEsFgmTtIA4hm/cG3dFofFRb6krHitvNjLH+kQm23qiKvisBgudisjnqpnfbehJ58msX4O0hovltBC1h7axbX+0jz6SqRaa4hXa4I4I9/4rTM0i3rsZdxsKWbRC9Yk9WkgNjInrmNnWB22Bm2zpw0kfbEhw7bqupc6+qn90GFta486gxTX+iKUgShgEOcMQaQxTuy0IqlrYtO5XRflHBlPGkdgdOeI7wnJTpsJVM49tB/30Vbs4GjDfTyxcBJtKNfsV/O+0tRp1rVg6UPkOSrbrKdMLHpxrxiz4yBBn9jTXIT9QP+lG6My8pRRx7lxye9uLzDsQhnYJTiMB+yCG/imnqAg8LClPHxQh+2CQwKrozaC18DueMM34lobwTNtqRf+IN+8qRP+416OUUZbghx/4TeEuXrGEnWDB91jTRwZ2JSN4xhpjuYIR2IuumHe5Clnfnp9c4zf/A7f2/ITiWFAL6EM4qL4F7qCr8Uazd/4kHJxbhONcBOTwy+Vd64O8CcxVHlxVNuxvktrxulmXwYFzfEYd6xHEVMi7sR6wRbqNPOU10Z3/Wgj1iMPJexlXZMO0TbbhYZw7ehauvXZJoINR+fyujEyQplxmnmMySiR5hjXyoYx4xzkq+fcZw6eRsCiH+nRVtwDos1mmuvmveNezbS4btbVB9fNsnEdZSK9eS/Xgwh9DbjW1xhD9LuZ79gcYxtGQSgDOzT5EPwUzO0U26l137BV2DbqSJPXbCMgTV5cx3m0FfWaZeK6u4x7Cmp2le0m8Jl4rRb9inJRNzFxiPmBZlocYw4jrwlz5Bt2+RapXjyWnkI5MewYSyhDxNfwqYhnzsPHIh56I0f4ajPymvFPWjNey4s4GfnNe0W9QUKzbzGGSAtEWefG1p3XPPaq78iWHlS686BZr62t+PywWaeJkRHKEw33QdIgaluZxNRgVIRyL7gfkUyMOm8rMxUQBCPwp89MD+CgXWTnKZQTo46DCeVDATFmh9TnAHZQMxZODNixl9A9GA5WN4VyYugw6kIZBGJoy0skDhUplBOJdzARQjkQnxYkBh8plBNDhxTK+3ctxvt0nUgEUignEu9gIoVyxufpgxTKiaFDCuVEYmKQQjmReAcTKZQT0wcplBNDhxTKicTEIIVyIvEOUiiPJlIoJ4YOKZQTiYlBCuVE4h2kUB5NpFBODB1SKCcSE4MUyonEO0ihPJpIoZwYOqRQTiQmBimUE4l3kEJ5NDGUQjl+4z8xmhgWoey/JzeWRKJfsAj4X63a8gAHUygnEu+g20cSww8PSG1cmCrkjnLiiIHYbdyYSEyGUE4k+ommAHbeVgZSKCcSicTgIIVy4oiRQjmRODhSKCcSicT0QwrlxBEjhXIicXCkUE4kEonphxTKiSNGCuVE4uBIoZxIJBLTDymUE0eMFMqJxMGRQjmRSCSmHyZFKL/yyispqCcQbOmvTbTlTQVSKCcSB0cK5UQikZh+6LtQlv/UU0+VLVu2TIhgJhBHWXQb/9NPP122bdt2WHaIP+UWUNdRXpzHdZx3X0db3UihnEgcHCmUE4lEYvqh70LZ38O7/fbby4oVK+p9NmzYMG6hqx7B/dhjj427jekOIvCee+4pjzzySD1vK9MNtmL3rVu3ls2bN5c77rijrFq1quzevbvs2LGjzs2yZcvKAw88UAXxo48+Wq+VY+8nnnii1vWg09Z+CuVE4uBIoZxIJBLTD30VygTLvn37DghlAozII3jkAWFGgAn6IcS06TqEYOQT3QTi3XffXdPkN+u1pQ0ijDnsFudhB3Defa2Mc7YzfnZgD2nRTrN8XLPHnj17yq233lp39h988MGKpUuXljVr1tS0G2+8saxdu7Y8/vjj9T5E8p133lkefvjhsn379rJu3boDNm+OI8DebdyYSKRQTkx3pFBOJBKJ6Ye+COUQdgQZgXbVVVeVlStX1t1MAs/u5OrVq6sgs6NJpN1www11p5gYevbZZ8vNN99cBTaRp95NN91Ud0HtbipvkXjooYfK9ddfX6+JI3n33XdfLUvctfVtqsE2xrdx48YqPC2Gzn1OYXxsZszKeLBwzUZswIbGeO+995a77rqr3H///VXcakd5Y2dX//OXOuxJDIN5cP/4X8GIYGLYTrNjCHHH2267rWzatKnaFPRxyZIltc02m6ZQTiQOjhTKiUQiMf3QF6FMqDz55JNl9uzZVeyee+65dSeZiPM6n+A7++yzy/Lly6twXrBgQS139dVXl+eff76K32uuuaYKOH2bN29eWbRoURWGRCLRR2xfcsklVVBfdtllVWjaGZV2yy23lDlz5tS2Bk0sE6NErz46J/bt1kpzTqQSv4Q+G7CZXV/l2Y2wdfRg4VOJxYsXVwHrEwn1PXx4cHCtPvGtvHuYF/YgOIlq9iSI2Zb93VOfnGuXGPctNHHv/vohv3tMKZQTiYMjhXIikUhMP/RFKMd3yQsXLqyfXhBihBpxRhwTy0ScYE8YXnjhhVVIE8/KzZ07t77y37t3b935JHqJNUIphLJ2CGM/RB1R7Vq6+19xxRVVVBJN3f2bShiHb4MJTwshW9j5JXbtIPskgp3sArONMTtnT2MBn7Gwg3Eq46FEm+orJ58AtrPufnaliWJ1CV0PEO7vYSN27NW97rrrKhf0S319I5YtyNol4NvsmUI5kTg4UignEonE9EPfhDLRStD6sctJCBOAzokvwtYPMT1r1qwqEJUn6C6//PIq8CwGdkTtNGsTtKFciGM/hKFPA+wu22UlsK+99tqewm6qoU8eCIyVAPXZBPvY+TUuItiusHyLZuwKG7/F0bmdeOMkZj0Q2HlmBwKYXQhdR2XYRFvqmi/3Vp5odi0diG6COWxtV5pdlTFvBH0K5URifBhkofzWW292Ium+Dt5KJLqwr+wbg6+JxLCjb0KZsCKC/fi0InaUCUMCjsDzQ9jZcdYW4eb1vh1mr/xjR/niiy+u7caOMlFNbPv8wI+jNgllAtD97VgPslAmOsMuhLLPTV544YUqgoFQZi928UmFhwP1Quj6TMI42ZGN7B7bKSaK7arbZWYTZexIh9Bev359nYNdu3bVthyjX+xHdOsHWxPN7uuhxVGb+elFIjE+DKpQJpJfeuW1sm3Xi2X77pcSiXdh2+4Xy56XXilvtnAnkRgF9O0bZa/zfS9MwM2cObMK3OaOMoEn2CtHCHvtT4wRbnaj7Srb4SQi7Sj7TpnY0058tqCMeo7K2Y0NoTzIO8psRtReeeWV9bMIwpRINT72svsbQpk49NBgZ5cAJl7tMIdQJoaNUx67aoeQDqGsvl8AJI59ZjF//vwqyu0+E9DynJsPc+OX/dxXX9yToDcnzn0O0zbfKZQTiYNjUIWynxvvebR84pQF5cvn3JBIvAufPn1RmXnDvaXseyvjamIk0RehDNKJOQKO6CNk4+/4eqVv51gZO5R2OYliItfuJWGons8RtKW8fDurfmnPX4kghog44jo+CSD65GtTWi9hNyjQR2PVX3Yhmo3NAslexqL/wF7s45MKdox60n3frKzdZDvC5pMQj1++k09Au2ZrdlSWwNYOwSzNfd0rPuXQv5gfIlqe+ekeRwrlROLgGGShfOaCu8v/8bcnlH/60TMSiXfhn7zv5PLZjlj2CUbG1cQoom9CGYisAIEFIfya9eQTN46u5bVdO0YbveqFkJPWJuoGCc0+6rvrGEMgykZ+d16Ub6vvPMp4WLHLTGwq1yzbrNvdF/b1wOMhRFr0p4kUyonEwTHIQvmshSvLL7z3xPI7Hz8zkXgXfvkDp5TPnXFdhyUplBOjib4K5cTgwOcdPr1oyzsYDlYvhXIicXAMslA+uyOU/6+/P6n8s0+clUi8C7/ywVPL589MoZwYXaRQHhHELnNb3sFwsLoplBOJgyOFcmI6IoVyYtSRQjlxxEihnEgcHCmUE9MRKZQTo44UyokjRgrlROLgmK5C+Xc+Dm9/s9qSnxhupFBOjDpSKCeOGCmUE4mDYzoKZcL4N//h9PIbb+O3PnbGz5VJDDdSKCdGHSmUE0eMFMqJxMEx3YSyPw32rz5/XjnpqrvKJbc8WK5a9nD52oybarpd5mbZxPAihXJi1JFCOXHESKGcSBwc000o/8ZHTi//4WsXlG27Xy4vv7a3rNu8vZzcEc2/9IGTy3s+fFoVzO/50Knltz52Zt11/tXOuWvp0pT5tQ6k/Xqnrfd8eH/+b3/8zAp56tip9lmH60j79Y+clp95DAhSKCdGHSmUE0eMFMqJxMExHYXyn3aE8o4XXi1L7ttQ/vUXzi//9kszy3cvvKV86rRF5T99c3Y57oo7yl8dPbd86Piry6lXryg/uWxZ+c/furj8lw6+c8Et5dsX3FyO7aR97OT55UeX3l6OmX1r3aX+g8+cW/PUed9P5pXf//Q55RvnL644sSPGP3vGdbUPBHSzT4nJRwrlxKjjiIVy/McUidFFCuVE4uCYrkL56R0vlmd2vlgW3f1o+cLZ13eO68uTz+4uV9+xrrzwyhvlvx9zWTlrwcqy4emdnevXy0VLVpcvnHV9ee2Nn5Wntu8pr7y+t2zetqc8u+ulsvfNtzqi6/ryrZk3l50vvlqe2vZCuf/xZ8rf/eiK8uRzu8u2PS+XF15+vWzt3PPPv3dp3Ylu9ikx+UihnBh1HLFQ3rt3byLRyo2JRArlxHTH9BXKL3RE7Stl5SNbyldm3FT+/tiryu6XXuv04a1y5e1r6ycW3zx/caeNe8rGZ3aVtZu2laMuuqW2e8q8u8qtD2zsiN/XatqLr75eLlx8fyftybL1+RfKBZ3zvT97qxw9e2kV5Hauj7tsea37mdMX1c8wmn1KTD5SKCdGHUcslBOJyUAK5cR0x3QVyj69WLBiffm1D59avyH+w8+cW57oCGI/Xz9vcfkXn5tR7nv8mfLAE8/WneeHN28vP5pze91Rfv9P55WLb36gPLZ1R/mzb19cnumI4QV3PVJ3kV9+7Y1OnefK83te6QjlW6tQ9unG+35yVfmZneezrkuhPABIoZwYdaRQTkwLpFBOTHdMZ6G8fM2m8tfHzC3/5ovn188qfGJB6F575yPloyddW9u47LY15cGNz5bHt+4sx85dVl59fb9QnrP0ofpZhk8piOI5Sx8sN9+/sTy786VywhV3lHMXrSofP2V+3bX2XbM6+/btS6E8IEihnBh1pFBOTAukUE5Md0xXoew749f3/qyK3Jk33leWPbSpCuJzOgJ310uvlR/Pub1sfHZX3RHe+Nyu8sCGZ8uPO0L5pVf2VtF76S0Plke37qhC2V/QmHnDfR2xfUM9f7wjoFd3yhPKz+166YBQ9jnG5zriLIXy1COFcmLUkUI5MS2QQjkx3THdhPJvf+zM8kefPbf+At/RFy0tP7j0tvLRk+aXr5x7YxWzf/zlWeW7HWH7Nz+8ou4qK/Op0xaWT5yyoPzFUXPqZxl//JVZ5b3HXllFr7+aoe7f/vjK8nufPLt8/qzr61/C+OqMm8qffv3C8uVO3n/9ziW1zrdmLin/8RsX5X9wMgBIoZwYdaRQTkwLpFBOTHdMN6EM/mMRf9M4/sZx/V/6PvLO/9Inzd9NlubcX6lwHnn+XvJvdvKl+1Nv2tr/H5bsP99fp1OuI8od1Yu/sSytuz+JyUcK5cSoI4VyYloghXJiumM6CuVEIoVyYtSRQjkxLZBCOTHdkUI5MR2RQjkx6kihnJgWSKGcmO5IoZyYjkihnBh1pFBOTAukUE5Md6RQTkxHpFBOjDpSKCemBVIoJ6Y7UignpiNSKCdGHSmUE9MCKZQT0x0plBPTESmUE6OOFMqJaYHJEsrqJRITi/3cGmShfNaCleX//LsT659mSySa+KUPnFI+d8aiDkumRii/40eJxMShjWu9kEI5MS0wGUJZnX0dkZJITBj2vdURvvu5ONBCeeHK8gvvPbH+feNEoolfnkKh/GYH+zr+0+pbicQ4ETH5UJFCOTEt0G+hzHme2ranXLVsbbl6eQd3PJxIHDGuuH1NWbX+qbeD8+AK5bsf3lSOv+y2cvrVdyYS78JJVywr8+9YWx/64u3IZICY2fnCy2XBinX743KLfyUShwsx+dYHnih79+49ZJ2QQjkxLdBvoezn1tVPlD/63Iz6X+3+2y/OTCSOGL/3qbPLDy+5tfJrUIWytl599bWye8+esueFFxKJd2PPC+Wll15u5U4/4efRLdvrf2X+Lz53Xqt/JRKHi9//9DnlEyfPL6+9/kYpnYe/Nu51I4VyYlpgMoTy4lWPlV/90Kn1v+f13+wmEkeKf/K+k8q3zl9c+TXIQvn111/riKEXy8svvZRIvBsvv1Re68TUNu70E37WbdpW/vAz55b3fGj/f32eSBwpfun9J5f3/viKFMqJ4cNkCOUl9z5eRbJfYGn77e9E4nDxKx88pXxn1pLKr0EWytp64YUX6n0TiW688sorrdzpJ/w8snlb+VefP6/85j+c0epficTh4j0fOrW8/ydXpVBODB9SKCemI1IoJ4YBKZQTw4IUyomhRQrlxHRECuXEMCCFcmJYkEI5MbQYRKH8Ox/voCU9kQikUO4vXnrppSri2vLg5ZdfrmjLSxw6hl0ox/erbXm98FsfO/Ow6ySmHimUE0OLQRDKv9nJ42QgcP/Wxw4/uCZGCymUJw4EL98mjiNtz549ZceOHa19V17erl27xhTTo4AjfWAYNKH8ux38Zif2+uVr8fjXP3L6EW1a/NFnZ9S/eHSobSjnlwz/Zadvv/vJ9jKJwUQK5cTQYqqFMkH8p1+7sLz/p/PKe4+9svz/vnpB+cSpC8sHj7u65v3ah0+rwrm7XmK0kUJ5YkDkscfDDz9cdu/eXcUyP1+/fn2ZNWtWefbZZ98lhuU98sgjZdGiRWXx4sVl8+bNIyuW2eqpp54qW7ZseddDRhNsM5aQHjShLNb6s3HiMfzX71xS/3OUf/bxd/vfwUDwivnn33BfufCm1TWO74/lZ1Yx3lYHlPnp5cvLdSsfK//6C+flhsk0QgrlxNBiKoWyIE0k3/rAk2XXi6+WHS+8Wk6ad2dZct+GcvUd62rQ/vI5N5T//M3ZNYCGcP71j+wPuM22EqOFYRDKxJV8fuWaoIpzR9fNMiHGiCuQrkycR74019Kb5bUR7Qf4/gMPPFBOPfXUahf57CTtO9/5ThWBUUcb7HLFFVeUu+66q8ybN69cddVVdfe5l1AcVhgve9xyyy3l9ttvrzZi95gP+c6feOKJA7GzrR1l27jTT/jpJZR/8f2nlNOvubvseum1srMTkx/a+Fz5H9+/rPxaJ+Z68yf+Oir77nh8RvmNj5xej4T1r3341Oqj96zfUu599Ola5svn3lj+769f1BFU+2O5NPjtt8Xzb3TS/HfvVy17uN77j78ys4qv/ffI33EZdKRQTgwtcHQqhLIdB451+rV31zIX3nR/uWjx6vLVTjD99qyby5c6Avm/H3NZ2b775XLc5cvrfzDxb754ft3h+M/fml3/uHkGztHFdBfKISztSD799NNVVNm9dV/njvrp84bYtYy60rdv317T5W/btq3muw/htXPnzrJp06by/PPP12v5ym/durXeoylq+fTGjRvr7rC2tKH9lStXlu9///u1Tog8cWLFihVVGPr0Yvbs2eWSSy4pjz76aB1ntDkqYMe1a9fWHXZ2Y29gP3nsee2115a7776758NEm1DGG+2x6eHG20OBn15C+Z+87+QyZ+lD5ZXX95ZzF62qZU+9ZkX5x39/Uvn3X55V/tt3Lyn/7kszq9D1n5X82bcvLv/lWxeXf91p6z98/cL6n0qJzXalid9lDz1Zbn/wyfJnnTLPv/BK+dGlt5d//qlz6n9Q8WfffieW68e/7sR397jmjnVl6/Mv1Hj/B508MZ/A/t1Pnr1/d7vR38TgIIVyYmiBo1MhlH/77Z2HBzY8Wx7etL38XicIyhe8r73zkXLBjfeXi5esrvW3dcTyV2fcWE688s7yxDM7y6Nbd5TvX3Jr3dnIwDmamO5CmUC64447ynHHHVdOO+20uvNol/ass84qGzZsKKeffnoVWPfdd18tA8QrwXXRRReVmTNnlh/96EflyiuvLOeff3754Q9/WB588MEqxuz4/vjHP64i1ucU1113XZkxY0Y5/vjjy5lnnlmFufvrB99/6KGHynnnnVeF3bJly2q7J598cm1T2RDK/mtabbmPa6L5xhtvrP164403DoxtFMDOHmg8NNx77711/hYsWFAWLlxY5s6dW+fQ5yvs7oHCDn3YsYk2oYynOKr9sfg8XvgZUyjf8mDZvG1P+ZOvzCq7XnytnH/9vVXY3tYRvBuf7fBp5aPlT756QTmnI6Q3PL2rrOvE76/NuKnc2sk/6qKlHeE8uzy8eXv5+Mnzy02rHi93Pry5nHvdftH97K6Xyvc6ZU65ekWt+/jTO8pRs5eW3++I52s6cf/JTvvP7HixrN/yfPmP35xdZt/8QHlq+wtlXae9T5+2qO4s/7OM+QOJFMqJocVUCWUB2s7Ec53ASRj/YidAC4L//NPndALoznLr6o3ljLd3mxfctb78+ffmdALsLWXu0ofKMztfrIH4Dz87I79hG1FMZ6HMj+zsEqQXX3xxFa+OdogJ3JNOOqke7ebarbzmmmvKCSecUAW1nVw7vT6VIJa/+MUvVmEmzZGI/e53v1t3Mgnde+65p8yZM6d861vfqp9KfO1rX6uCPIStI8F7zDHH1PsT5MS6to866qgDQhn054ILLqjfJRsf4Tx//vxy//331xjSHOOwI4QycXzrrbdWUXz22WfXc/a++eab6049O9qtt+OvfHc7hDI7NsG2sfMfdm4rc7ixOOBnLKHszd4rr3Xm9q5Hyouvvl7f8p1w5R3ltTd+VsXs7pdeK6d2hO7W51/sxOKXyiUdMfsPJ13bieUv1zeEf3HUpfUeXz9vcbnhnsfK8jWbyklX3VnTrrlzXfnrYy6rYvnyW9fUWH7f48+Uz5y+qPzszbfqZ3ePbd1RhfG3O/796ut7y40dsb2lI5bvfvipuqucv7MymEihnBhaTJVQJnAF6i3Pv1B3KPz3l+/58Gn1E4tHNj9fFq5YXz5/1nW1/qdOW1h/C3vWjfeXpQ9srOLaLsMff2VWbbfprInRwHQWyvyNAP7KV75ShdSJJ55YBSrRSsx+4AMfqEJX/eXLl9cd5J/+9KcV+k4AL126tLbx7W9/u4pZ4szu5Q033FDbveyyy6o4tgN86aWXlnPOOacKtZ/85CdVuBFb+uKedoSPPfbY+hmB75L9Yh8cffTRVRwbg7JXX311/SaXuHvyySfLqlWrqjj3WUebCBxmhFD2S412lQnlCy+8sH72ctttt9WdZXaxm8yuvXbcm59sBDwMsS+x7Lw7P2AeDjceg5+xhLI4u2/fvvJmx1/WbNxW/sXnZpSbOjH89b1vlls78ZegveL2tXUDg5D2TfFfHzO3fi7hrd9/+84l5Y2fvVm+0hHYdpRvWb2xfPLUBfW+/3DitR3fPbX+kp+2nu0I7Ue37KifeajzZ9+aXYW6tNlLVldx/p++ObuctXBV2fPy6/VzjPhGOjFYSKGcGFpMlVB2LuCtWLel7kx4zedPAv35dy+tn2Is6AjlL5x9fa0vyP7l0XNroBaw127aVoNyCuXRxXQWytJ81/vVr3617kL6RIKg5V/OP/7xj5fLL7+8ii6imBi1k0vkEk9Erc8yHnvssboT7BtkZQjlm266qQpl7RDYXvnHt8TaJ8iXLFnSKpSJY0LZpxjq2VEmlJUl3NyDOLQjrT2ffRDr2m2ObxTQLZTZwcOKPEJZOqFsDtgzHja6gRs+eWnC5zJ27fHUeVt+fHNubsYTk8cSyhff/GAVsJctfahs2/Vy/UZ40d3rq5C1o7xo5aPluxfcXP6qE5Ov7AjmN9/aV86Yv7Jsem53FcAf6YhhP34RO4Typ057Ryj/xVFzqgBefO+G8uDG58pjHVF81oJ7yt5O+3/eybvstjVVKM/qtPV6p9xfHj2n/uUMn4H4Btqfr2v2OTEYSKGcGFpMlVD2n4pwrB/PWVZ3L1Y9+nS5+5Gt9RWfHWVB9H0dp3vzzX1l9ePPlnMWriqvvv6zcs/6p8umbXvqd8t/8tUUyqOK6SyU7QTaEfQdsM8u7Pj6XnnNmjV1F5dI9ikFMfyDH/yg7gb7ZpmY1S95xKpdTMLWeIhhba1bt66KZ59yELO+lSWyCTb39bmH74r1j9gjtHx6QRT7PMDnHb5lPuOMM2rbIcbcyy63PvoMhPgzhlHbSQ6EUPbpic8t2J3N5dntl07QerggoAlp9u9uR1obb+LTi7F4Gr8E2qtML/jpJZT/8d+fXMXv9t2vlL/siFZ/fcKOsT/Z9vJre8v1Kx8r1939aPlORyhfesuDNU77ObcTn+9Zv7XseOGV+imFn6/MuLHuGt+19qkqdglqeeddt6oKZTF/87bdVWB/9oxF5aVX36j5Pud44pld5dOnL6q/ALh6w7Nlz8uvlaUdwe3P1OWnF4OJFMqJocVUCWX4rbc/v5hx3b31Twjd/ciW8sVzbqi/yHfK1XfVPzx/6S0P1TzfJyu3fM3mcvlta+tvZnsNl98ojyam+y/z8SVi0y4wgWtXl1gmrAhQ4sov1vnUwTfDhBfE7rHX+f6yBYGsvHKELOHk+1ht+iU/Zewggzwi3CcTfF4/9M9OMlFN2PnemFj2CYhfCmQrZX2/rK7PC3y6Ia1N+I0SCFkPLKtXr6477uZAuus777yz2scvY9p5N9dtO++9hPLBPq3AZXOjjV5lesFPL6H8qx88tfzgklvr98muT7tmRf0dEp9T+MtEKzoxesn9T5RPn7awE4fXVHHsM7k//96l9Rf65C+8e30V0x84bl79pb2zF95TP6kjrMXyYy6+tZx3/X01ll91e4d7Nz9Qf1/FrvTKTv15y9d10h4s/+oL55Vj5y7rCOqt5ZbVT9SNk9wYGVykUE4MLaZSKIPdAX/xwmcXvoUTUP/ws+dWkay8Px0koEv3Z4X+5edn1DRl8n9uGl1Md6EcO5I+r/AdaryCJ1alxyt36ZEvLcr56xdxrr0or13XhJa2Iw+cq+e1PVHnO1qffPilM21Fv9Rr3i/qEYM+93AffZQ+6mCjmIumjZ2zZcyRtO660CaUQaz1WUxbHvRLKPuzneKr/1HPWz8xV7n952fXc//TnpgtBruOWO3PwYnjf9C5lqZ8nKvfjOXOxXJ//k07/nqRdGtAxHdp0Wbc41D/h7/E5COFcmJoMdVCGfznIb47szusjJ3meL3mKJj7o/T1/O283EkebUx3oQyEFKEEIZxDgMZ5lOnOkx51muW72+3Ok0bE2fW0i+2vYnjNH7udbfcLuJanTDN9lBHzAGGvuI5z6XHdDfZs487B0C+hDOJxxNc4J1Aj/kacdlQ/8qVFfk0Tyzt1YH9b++s3Y3mUjXt1pykbacS2tMRgIoVyYmgxCEI5kThcDINQnkroV6BbECcmD4MolBOJ8SCFcmJokUI5MR2RQjkxDEihnBgWpFBODC1SKCemI1IoJ4YBKZQTw4IUyomhRQrlxHRECuXEMCCFcmJYkEI5MbRIoZyYjkihnBgGpFBODAtSKCeGFimUE9MRKZQTw4AUyolhwZQIZTfq/JNITBj2vfXzAXUyhPJNqx4rv/SBk8t7Pnxq+fWPnJ5IHDF+4b0nlG+cd1PlVwrlxHTFVAnldZu21b+R/MsfOKXVvxKJw8U//vsTy9/+8PLJEcpvvvmzsrdzfPr5PeXJZ3aWTc/uSiSOGLi084WXOwH23UF1MoTyXWs3lf/x/bnlbzpO9Hc/uiKROGL85VGXljOuXdFh174Uyolpi6kRyvvKE0/vKB86/uryP79/Wat/JRKHi78+ek59y0cot23KtWHcQpmQeWPv3nLM7KXlg8fNKx87eX4iccT4+2OvKvNuX/tzfOy3UH6rU37nnhfL2ie2loc3Pt2BYyJxZFizYUvZ/OyOysdBF8ruGf8JRSLRhJjaxp2D4UiEspj84suvlnUZjxMTiLVPbCmPP/Vc1a82fNu4141xC+V9HQd4/Y03yl8eNaf8k/edVH7zH05PJI4Y/+jvTignXXnnz/Gx30IZ/Fesr73yciIxYXj15ZfK66/tFxmDLpRzRznRC1Oxowx7975RXm3xq0TiSBAx+VBxxEL5f3z/svIrHzq1/teQicSR4p+8/+Ry6ry7fo6PkyGUtd+9QCQSRwLiM0RGCuXEdMVUCWWbF919SSSOFP6Xzza+9cKECOVf7Qjltt8uTCQOF7+YQjkxREihnBgGpFBODBNSKCemNVIoJ4YJKZQTw4AUyolhQgrlxLRGCuXEMCGFcmIYkEI5MUwYGKH82x8788B/3ODb099y3cE//egZ5Xda/kMH6fK70xOjhekilOO3wdvyxgIH7a6nv9KbaaCcBQra8hOTg/HONQyTUA4+tuUdDsZry1ECGx2Jz3dzNq7HSmvmdWNYhbIx4/5YY+/G4dRRprtcxPRmWnder/zEfrTZ9XAwMEL5dz95dhXIzbQ/+PQ55T98/cLy+51jt1j+069dUP7VF87rCOoz6v+O9jsff3fdxGhgugjl3bt3VzgX1A7VaXft2lX27NlTz9Vxfvfdd5cnnnjiXcExAsEjjzxS7r333jquDJ5TA/Mcc9aGtoefwLAIZWPctm1bWb9+/QFutpU7FBxq3SO9z3RF2Hrz5s2HNX5lzaEjvkLUl96MWSA/uH2wh6Tg8OFikIUyOz/77LPlzjvvLNu3b69jPFiMjblRx7hct5ULdNtc+QcffLCiu657b9y4saxatao8+eSTB217lBG8bcsDthvLd+S38a0XJlwo2zn+/c+cU2becF85du6y+t8F/tfvXFLm3vpQvV62ZlP9u8u/9uHTqlj+zY+eUf7os+eWxfdtKD+ec3sVyn/y1QvK7xHanXyCef8xd5tHAYMslDkeaP/GG28sS5YsqecCZ3NRinLNuhyTSL788svL/fffX4WJwKjeT3/603LzzTe/a1HQ7n333VeuvPLKsnDhwnL11VeX559//qCBPDFxiHm0KK5evbrOSTMvjjt27KiBu3vOYViEsvzHHnusXHPNNQfsEogyh3LNTkTCzp07DyxmzTJRjq0ff/zxsmHDhgOcbyvXnTYdMFafY+xsjXdt/t5WXzniir2efvrpcscdd5Tly5dXfsj3MH7rrbeWFStW1Di0ZcuWen3bbbfVh3HXHoJ6ibPg8OFiMoRy0x7OD3Yd59p++OGHy1FHHVVtJ49gjjLddcEagZfqPProo/W6rRyYR+vE4sWL67ky7nnBBRdU8KmoJ99myRVXXFGuv/76ctlll1XRLL273VEHLuLzPffc8y5B3JwD8QXP2+YFBkAon1HF8t2PbClPPLOzCuVvnL+4vLVvXznuijvKjaser//Ptv+S0t/NJZj/sCOUF979aPnWzCXlf/3g8rK8I6b//ZdnlV//yGn1k4z4G7vabYqqxPBhUIUyx+Kg2hbgBDPiltC99NJLa6CVHuWgueg4JxLmzp1bBbCAqby8n/zkJ1V0x6KgLEefN29eDcoWs7PPPrsGhoOJ+cTEQqAlODzcmHtz04QyBId5ivlsYhiEsnHKN0YPbGxiTI7ymkeIOnHuGP6A1/hMkLBn1JHXrOd+Hk6IaueR3izXnTZo0Lfuc8eA6xhDM49dmkK5WT7O47ppBzw1R+o+9NBDVUwQzGxNrBGF8pWVj7fKbt26te6sLl269MADjLabCA4fLvoplPVTv5pcjOuwSdt11N27d29Zu3Zt+e53v1ttYCd30aJFB8Rv1G3W0SeC9nvf+159sNBGlJHf7J95vOGGG6pYxmHX6hPJs2bNqmnuo6z61hQxHufPPffcOmfSo0xiP9gEt1euXPku2zexbNmysm7dumrjtjaUafLsYOjLpxe/9IGTyykdsfPSq6+X//C1C8vFNz9Qtu54oby3I5DPXnhP+S/fvrh85vRF5cKb7i/nLFxV/vqYueXEK+8snzx1YZm9ZHXty5ylD5b/2RHNR89eWi65+cFyytUryp922iKcm/dKDBcGUShzKru5N910U33StwNjZ4bgFdi+8pWvlIsuuqg89dRTdTGyKyDg6ou62hDsCGVB006ENIHwuuuuKz/84Q/rIhWLAucWjBcsWFD7JdjOnz+/BtJejp/oD8wbkUxQ2HUj3iyoRAxO2PWx8JmrTZs21aDdrD/dhbK+E1e4583GtddeW8uyhzFbsKKMfDzGc58N8IHbb7+92o2veLDEffYkzB544IEqmvHbNf/jW7jOxhY6YoQ/u497ExGulbvrrrvqPdesWfNzdp9K4IzdLH30IM0ezo2RHYzFvOGPMRqrXWD54goRa9zs5bMr9tKONxdRX3ntKiefDW655ZbapnlkI2W0IS4RxeqLR+ysXW3pK9uBuTKP6naPSX4bdw6Gfgll/dF/YklcFi+JXQ9yuGqsbCHeeotHEOMeG7GBuK0++33/+9+vx3POOafuFPNtDxdRVzmcx2Oc91bl6KOPrrv3Hizw/Kqrrqp9aNpOHz28mC/1g6+nnHJKmT17dk1j/+CLNsydvuE6aF9+c+yjDvMnDlhrzTH+iyXEMa6bJ+sxLuBzrMHdbbTxrRf6IpRdf/Tk+eW1N35WvjrjxrJi3ZZy472Plw8ef3V5+dU3Omk3lcef3ll2vvhquf+xZ6po3vjs7nLxkk7gfPDJsq/Tl5Xrt5ZPnLqgXHvXI+WRzdvL3p+9VU67ZkV5j082GvdKDBcGUSgLaBbzb33rW1XUCs4XXnhhDaKC9Gc/+9lyxhln1EBpsREI7VKEqNCGoCl4/+hHP6qLoYXqa1/7Wjn++OPLV7/61SoYYlFw5PSCqh0L9QR6O8zRXqL/iEXMwmiRMwfnnXdeXdAcLaBEjQXWwxEx1C0yprNQtpgQYx4OCQz8c25RJ2bZxKdBFixc91aETfRbWT5jASMGzzzzzCra+Ii6HjDOP//8ynvXHhotetpXTh15fI0gueSSS6ro4HPG7H5szt+80QkR2Oz/VAFnCFv2IFYJOPbTb7YihIzLwwRuEcry+LzY4CGEcDNG5bUjjWjCQfWJL/Yi3NTxAMde7s0O5lMbRJ9Pw9jXQ4z7KqMd86OOcmKOPKKjLcYMmlCWjgvf+c536qdr/PDiiy+u58cee2y1GXt+85vfLCeddFLljocFecZCqBJThNQPfvCDOm6xXYxnF2ILP8XnH//4x3V+cPrrX/96Oe6442o5bxHZ/9vf/nbdYRYT+Av7szE7zpgxo3Jae8q4vz7hs/woZw7wWN34NEa9QeL1IIC9zJ8NJnzmXzYqxCG79NZjPmNH3ttbvFC+ux02beNbL/RFKP/mP5xR/t2XZ5Ut218o8ztC96nte8pPL19eP6t45bU3yjdmLi7P7nypbOiI5aMvXlr+0zdnl2d3vVRO7gikcxatKq+8vrf85dFz6icZJ1x5R5m9eHUV3Tfft6H8+kdOP/DXNBLDh0ETyhzKoufziDlz5tSdBoJCUBSo7eQImvGax5OuHQbB9fTTT699CecW9KQTGAKlfE/AdidiR1l5aTNnzqw7INpU1+6GQN9LzCcmHuYNQiiba4un+fEQIygTQQK1vLYFbToLZWkELUGBlzhulwYvzzrrrGoTPCUC2YPA1YY6RIs2tK8evocI0AbxSxgQf2zIlwg1efxAvRDK2iWI/fADItH9iBtlCQq7+d0PKVMJfdFPY7dwGwfbEETSjYlII+jYxYJvbISWMRHGYoIHZQ8bHqxxMeqrZ+7VYUMPID6z0BZoh/2ku7ZbTXwprw0xzT31jzDUZ7FLP81793iCw4eLfgpl806k4iM+EaD4IzafdtppdWfZZgRRJfayJyFtLPhILJuDY445pnIWp/kye4nz5ojY0oaHGXXxjp1shBBh4rn7OLcOsC37mStHffFAR7QTyh6OPDTaaJGvL+bK2mL+xHdp5ttYnLeNf1QRa2lTKIvJ4i/umi82Fn/CZ9raMcdtfOuFvghl3ykTs8se2lSe6wjg5194pbzvp/PK3/7oivLGz94sHzzu6vKdWTdXAb3h6V3lH068tjy1bU857vI7ymnX3F1efOX18s869f3Sn/p3PfxURzx3hPL9T5TfSKE81BhEoWwhImYJguiXnQIBUGAUrN3X4kP8clzCWrBWP5xbsLajICCqTyjs27fvXb/Mpw92KdzLOARYAdO9LDgZOCcP5g1CKFsMBWJzYL4IZQLEomehJmq625juQtkuOZ4aG9FlgbJ76Zt5u3TEGJFqwbIDirt2PO3wqK8eoejhEb/5QAhlR/ckSpTHeaJDHSCOLX7uSaj4cT/pbB+iRDuEzqAJZWLXji6wncXceQhl+XaD2cXupDTxQgyQh3PsoJ6denYUO9S3Q+wBgy3wiz3lOXdvc8R22gNp2tIOW7oH2+G3tswBfmtbevd4gsOHi34KZbzEQzGUvXwCZ/fYLrDdRZwkQIna2FG2G2zsfLYplD382oVU3g8uKqvMN77xjWpbO89sZ4fe5xrO1fXAZo2wDsTDG7uyo7VA7PaAYk3wQ8QR5OEfOOBBkY3V94ZFPzwADBKnBwGxljaFsrkUB/kHO/ILD0LemuBQWzt8optrY6EvQtmnEdLOmr+ytrulI4jtDr+/I5bf7NT7/JnXl8+deV25aPEDNf+4y5eXzR2hfPwVd5Rj5y7vEL+UL51zQ5l10301f+b195Y9L79eP8tIoTzcGDShzDEdBWA7AQIZYWCnwI6GBcrrOAu4nR+fUdihIZhPPvnk6tTh3ESC13sWQK/vBWKLmUDM6QVY5cLZ7RpxeMLDbpC87v4l+gfzBl65Ejh2ksy5IEtcWPwsmhY9DzTERvAlMJ2FMj+yO2NH2U4wkUXQEhd46cHQeIkE+XbGPEgQfBZ6/WcrAoyA5l98APcJW2KGQCEIiImwr3bYjLDhH0QKW6tPjOsHH7Mbqo/6NGhC2bjxQb+JeuPmz/pJFEsLIW1cHriMyVFdDwHyxAT2szvGHgS3+toVI8Qdc2CexBA2UAY/taUv5sdnGsrhKeHNxuYPf/TFtXuIb9NFKBOxNhyITbbwfbE0tiE+2dqYxFkiGI+IWXlELw6bA0I63uKJ8xHfbWAQzGK6GCyeE7nmUczGP5/ZEexsqG22Zz+2dnRfnMZj+drRbghlNvFwaO0wz4S1edcvPGgb+yiDXXHRg7e5Me8hlGMjw7k5kc8H1Oluh23b+NYLfRHK8CsfPKV88tQF9ZOJJfc/Ua8J5e17Xq5/3WL1E8+Urc+/UDY+t6t+i/zYlh3lR5feXv72R1eWF195owrnGdet6pR5sTy2dUctu2DF+vo3llMoDy8G9RtlQdb3cF6v2XXhiBZ8C8yJJ55Y8wRgYjp2kwU9dbUrmFuY7HYImsSGwC6I+27ZAib46zuhTBCceuqpdUdP3RTJkw8BFog8c05gmHNBVhC2YMoXtC2sFjvz3WxjOgvlWGAs5MZNkNrtku4VNHFrZ4dws7MZaYQG2xDL0i1gRCA/IBi1EWLEbjDBwr7u5Rr/7dbZBSQs2EGanX35hJ/24ptwvqIPzpv9n0qwUfAEjN2YiF2+DmKAceOH8s49ZNgNJsLECTHBzpg0/Ir6BLLdNDZyv/hUwAMLwcwmBBf7sbVzMUx9c0CIu1bWgwfbmSsCrc2OgyiUiaIQnGyNf97YxRs6Y/VphN1f18SwWOtajMYlGx3S2JJdv/SlL1U+mjMC2u8faJPvsw+BTDBLY1dzJI5bF/iHfphr0H/94xNsbp1wb3XxWb/ZxEONunbH9UG8HyQuDxL4CS56GAofEGcIYn7C1uKD+OMhyvy02XJghLLPL/7NF88vnzljUS1Tv1v+0szyiVMW1P905KMnXVu+fM4N5X0/uar80WdnlH/oXP/Zty+u/xnJx06eXz7bqfcfv3FR+fAJ15RPnbawfOC4eeV//fDyKpLzPyMZXgyiUOacRG58w8cpLXJ2DzitxUW63UVpdjEclbHTw4EFWjsczjk3R5UGFi07xtK0Z1Hk6BYwae7f1q9EfxF2tyDiVcyvdIuuuTU/djW89ovdwGYb01kog/HoB34Tb/FmI9JwNIQXMWZ3WD7hJh+/2S1sxY+csxlxwFfwncDTB+neuGjHOV/hzwSNdHVdm5PYwedX+jBofqI/xgBsYleXDfUXV1wbn7JsYwzEv7GymbmV7py9CYCoL4/NtB31iWb1cdNRWXZ0H7EIR9XTF/d3Ld+8uyYmldVWcxwQHD5c9Eso6yM7ib3sHPazI453bMA2zqXJU4ZdXLMHOxqvBzm2dO5hRhnlcds5GxmDMtJwPcroi3VBPfXNVcR191BWzMBZ1+6tPX3Xb+nGIN57cHEPtu4eb+IdsJs4IBaxF7vasIr4rEzwm3+1xQVcaONbL/RNKIP/klqezyV+95P7r/1dZSLa30+W50j8OsZ/b60MuJbu3FE7bfdJDA8GUSgDZ5MPnMw9QJ5jM925oyBvR8duHNgxkhaBkDAIqNu8l8XLsc3JE5ML82V+IObOsXnePYeB6S6UwbiC0zHmSFMPR5u8767TtBtI12+7P+7JJ4Lnysl3VA+kR/vRjmOzzqD6SXMMYacYm+vI685v5sX5WPWlEQlEmDlRrtmWo+so79gsE+I68ruhTBt3DoZ+CWWI/se1vuNIkz9xHeNiG9cxbrYJDkd5ec1z+a6Vaaa5jvrSgTC2U+1zrXjjJD36G/Uh+q1MHOM8MTZiftmLLcN2YVd5MW/ddSO/jW+90FehnEgcLgZVKI8XdtA89YKn3rYy3Qinh7b8xPTBMAjliYZFyo6PV+V2SXstZonDw5HEC3M/Vv1BFMqDiPHEe8h4P7lIoZyY1hg2oSz4cUrIQDh6SKHcDoLCa9HJvOco4EhizFh1UygfGjLeTw+kUE5MawybUE6MNlIo9wa7tKUnBg8plBPDhBTKiWmNFMqJYUIK5cQwIIVyYpiQQjkxrZFCOTFMSKGcGAakUE4ME1IoJ6Y1UignhgkplBPDgBTKiWHCpAvlvzp6bvmlD5xc/+RbInGk+L/ee2I5+ao7f46PKZQT0xEplBPDgBTKiWHCpAvlv/nhFfV/y/MfhSQSRwpvJ06/ZsXP8TGFcmI6IoVyYhiQQjkxTJg0ofxWh/RvvLG3zL9jbZl1/T1l9k33JhJHjPMWrSyr1j9Vyr597+LbZAllf9InkZhI4CN+DbJQJkiIIX1NJLqBa23cORgmQii3+VQicSQ43Ae/cQvlgBu+/PJL5eXOzROJI8VLL+3/35O6g+pkCeV44kwkJgqDvqOcSPQLEyGUw48SiYnCpO0oB6pQbhE8icR48FKHxK+99vNCN4VyYjpiOnx6kUj0CymUE4OISRfKbtjWkURiPCAs2oRuCuXEdEQK5cQoI4VyYhCRQjkxrZFCOTFMSKGcGGWkUE4MIlIoJ6Y1UignhgkplBOjjBTKiUHEyAvl+s10jz5Jl++3HtvyE1OPQRbKuANteU3kw+PUY1DmIIVyYpTRb6F8ODE51/2pRfzFiba8yQY+tPGtFyZVKCN0W/lDJXs32upt27atPP/88z83Ie67e/fuOtY9e/YcVr8Thwe2Ha9DDKpQNp6nn366bN26tTW/Cfwzjra8RP/B9jt37jyiOZiooJ5COTHK6KdQ5p/PPvts2bJlS2t+Ezt27Kjrf1teYnKwa9euqr3a8g4FExWTgUZp41svTIpQjsGtXr26PPHEE+8St84fe+yx8tBDD9Vyrg9mjDDYmjVryvr16w8IM8dLL720LFmy5F2iRzoBLX3BggXl9ttvrxN2sPskDg/sya6PPPJIDWC9uDEWZwZRKOMkgYxbt9566wH+dZeL8d90001jjj/RP5gDC+LKlSvL9u3bf24Oes1dIPI97Fhcxyp7KEihnBhl9Eso8yntXn755TXe8rM2X5UmBixdurRs2LChrg3dZRL9hzm4//77y8aNG+vcdeePFWflgc0PMX2ssocK/WnjWy/0TSgjZBhEQHd+3nnnVbG6d+/emgbOFy1aVGbPnl2FCsH86KOP1nMGiXLN+0jXPuFyzTXX1LKgrZNOOqlceeWV73IwZTnK9ddfX+6+++5y7rnnlvvuu6+2G2USRw5zhMzmZO3atXVOzHtAPiFpjpULfjQxiEIZl/Dmuuuuq0/FxoE7zf67p/rGd9lll1WhjI/h1G11EhOLiAvOb7nlljoHriE4aHG1AxXlIt38mFuB3Dzhrwf4iD1RJs6b86otx+hHEymUE6OMfgll6Tbe5s+fX9cSafyBL4ZvOheTpV999dV1U01/wlcdo060m5h4iH/m4c4776xzwObSIqaavyeffLJeR/nIs56KyeZo06ZNdc4jL47QnPe4dmz2owl5bXzrhb4JZYPyqlq+hQnuuOOOuttoQI8//ngVxIz04IMP1h0gRjnzzDPLnDlz6pODhSvK2d2Je6kPxIunFIbXPmOfeuqpVaiFg6njHhzFcdmyZeWCCy6oorlX3xPjgzmxm+chxHywN7FiNxbY2xx5wCFElA1yBwZNKEf/rr322hqU9c+4Hn744fLUU0/VMSnDmdetW1fHi2vxwKesMnzBmDdv3vxzY04cOdjU3JgTHLPz7y2SuGFuIhbde++99aHZjrF6eBpzItaIC7jqzZc8HDWn2tSWdsQ2sUp74pSyvXY6UignRhn9EMr8jO/ZuLApRidIF2/5sHP5/Fqc5rc24+65555aRlzgk/xaTObbGZP7A3YVM8Xl5cuX180H6WJoxF1zcsMNN9S469pRfpQTk5XVjvkVU3HKvDmaTzHePJtXRzFZHh40+xOQ3sa3XphwoWyghMoll1xSd9YE85kzZ9ZPHuwae6pA2B//+McVRJVXJ1dddVUl7de+9rXyrW99q9x2223VgCeccEL5wQ9+UEWKtgPuS1AzMIPYSf7JT35SvvOd75SFCxcecDD3Z9Arrrii9ssTDXHtfm1CLTF+mBMkNVdec3n6IxoFs7lz51bSc5azzz67vjIzL+ak2cagCWWORwR5G3LWWWdVhzQGYzI2TmqsxD9OcWS8lM8HPJhp14PgvHnzahkBWrvd90qMH+zJtxcvXlw/rbKIekgRQ8yBeCLQ3nzzzXVuzBM+SieqBXCxyNx5cI/PxDz8qKMMiF833njjgYC/YsWK2sZdd9114KGo2a8UyolRRj+EMh8jji+66KK6MSb++gzTGg983kOuNcc6I58mEKNpEsLLGsHHxWRlCLmMyRML9hRzfUVgzaQBrfnSbJrasBCH6UFzZQ4J4ojXYq8NJzHZBoeyDzzwQJ0rbSrnzaHYK+6vWrWq6jlH9d3Thkh3TAZpbXzrhb7sKHvlbKE67rjj6mL0/e9/vy4op5xySh0Qwfzd7373wFMEop5zzjm17Le//e2aL53RtONTiaOOOqo6HOMzhqPdZ8KDUdQjuLVLqHGwKMcx5EnjuAzunvJTKE8ccAExzR+SE4cEpqOghgOILo0oIaq7+TNoQhkIknBIAdhYiDLOzeHxy1HwJpZmzZpVnV6A5uTa4NxxzQba7L5PYnwIPyZoLZJihx0kXBQzzBmR620W25tHHBE3LJaCsfkVFwRgeTirvAAt4HpY8mDkQckulTaci2fiFA64d/e8plBOjDL6IZQB9/kln+f74irB5dobZQ+zfFo85oMENH+3sWEDw2YF3xGT5Xk73Sv+J8YHc2ROrPs2JcVI9nZuPRRbxVFpRLM4aR1VR+w1hzYrxGRzKD5rS5q2rLd0nfLEt/nWVsRkeTZfxfPuvg2EUGYgOy7HHntsfYr46U9/Wu9BKBu0gR1zzDF1pxlh7fDMmDGjGtDuMUL7YRRlTjvttLrLzLgGzTEYlbiOJ8Izzjij1jn99NPrgsbB9IOhCBqLpj65t/s5yu/ue2L8CKHsyR3RBR9BSDoeCGyI7NMXAavN/oMolKXbpeTYxuXthU8xPBBwdPzjmDjnlbwx47UHAQ9yxorTHuDwUzu9FoDE4UM8sCAKrAStNPY2B0SwXWC2J3A9wBDBOIKTgqu5bQZsc2NXwlwT0mJICHH3MdfKE90WZeeCs/rdQTmFcmKU0S+hLCbTB3yXYKIRxF2CWRywc+zBVRt8UryO72NpBg+56osLNtzEiIzJEwtxTxxmd3PP3sQu28ebOfPn2lF5m6cELq1gx1ieGC1PfKUpCGX1bcg6atP9lLcBJya7l5js3up2920ghLI0goF49SkEQaGzJ554YjWERYchvvGNb9RXIoStXUZC2e4zQyG3zy6kG/g3v/nNukBJbwpldYF4UV+dEMpgZ8niaIx2pu0GmjwLmHa6+54YP7qFMrIKUCGUPS0itR1XDz1t3BlUoYwzxBPHwyGCjGgSpI3XuLSBgx7E9EMZgdinPh7WlBfICbUMyhMHfszu4oZFGYcIXnMlWLK7ICoOEM7sb8GMHQ6xSjvOiWEBuFsoR5vm25sv3PaJBl6o7x7RThMplBOjjH4KZQ+o/I9Pnn/++dV/nfND8Zavuyf/E4dDNDkXA8Ri6xW9QKhlTJ5YWIfZ1QaFubT+x6dstJy4av4IX0fxzEaq8uZQ7FROmrymUDb3OEAou1ZejLfWEtbWg14xGWiPbq6Nhb79Mh/SIeBHPvKRAyS0s2xxMpALL7ywfibhqYKw8P0nEttx8xkFw3nSU8dusx1lRmMc5UxCfHphZ4fo9u3r17/+9SrO3M+CR6BZ1IgbgpsjWVh79TsxfrCpwBOfXiAxDkg3J3iAa94SmLd48Gm2MahCmUjinJzv4osvrm8kODoxjM/Gx8G95rezoR/xup7YEpQFag9r6mZQnjiEP+Mb25oHD8geXghl38WJO4Syt0rS8FTQVUe+Bzev73zq5WghxWGBVz28FODFD+U96PvEgzgXwMEbhO6H7xTKiVFGP4Uy4SX2Wuet7QQVn+XL/JOuIJb5M3HswZcvKhtC2a6z9YjIypg8sbAOWyN99kbM0mLWQHPmaP7kmR8bqI52hOkEO8k2JHBHHq1grmg5sVZdHIi31ASxNVqd2EmW7m1u24ao9aKNb73QN6EsiCOt1+w6j6B2j4kGgyQY4s9oxatLA7eTQzRLs2ODxMS0hc/CxCCeFixAFinlGAL57eyZDIulSQpnku4J00RIazNc4sjBroSEoIPYApOAJN2cEBzOiROCJD6labYxiEJZe/qOz4Kp4EsMC774S3Thtld6RJQxSyOqOTYBhd/KR9DgD233SowP4hD/xj0C2MMz+4s3gqnPXXAy+GkuzREueigXhIOngjXu4qdga07dQzwSe8y5BcA9Y1fEnLtfd2xJoZwYZfRLKIvJfJhPKsO3bUoQx0QSnUBg+SyO6OLT8RZTfOA3/JZuILD4f8bkiUXoAbFRnBWDxU4bGGwfb2jFSHNiU8Ja6dw6acPDfJk7cZmONE/ivLkPDrjWhnXZvGtTfdqQUG7TqNLa+NYLfRPKEItG9+IBBubYXb9ZVp5y0iwKnIIYAYtdlA9013duMYwnk7H6mpgcNOeqDeZ70IRyE/qORwIASAueug5ed9eJ/LHGnjgysK1ACc104rZZxlwoE+fx4B1z0yw/FpQH5bvvGdBuCuXEqKJfQrkbYjAf9LDK5yImx3V3+fD1jMn9Bduyf3cM7o6xUSbmwrm05nWzfC8oH+33ismAH21864W+C+Vmfgwi0h2b6c06kRbnFhuvtYll8FQSZbrbjrRIV3esfiYmFmH/5lz0Ou8G5xhEodzdf3xqcirS4ryZ3sxv5iUmHuwbaLtuph1q+UAz7VDKAz6nUE6MKvoplLv9znkzxsZ1nDfLtZVP9AfsG+hOa7uO8+7rKBtpzWPbeXedJsx7G996oa9CeaJhwSFmgBhqK5OY3hhUoZxIjAcplBOjjH4K5URivBhqoZwYfqRQTgwTUignRhkplBODiBTKiWmNFMqJYUIK5cQoI4VyYhCRQjkxrZFCOTFMSKGcGGWkUE4MIlIoJ6Y1UignhgkplBOjjBTKiUFECuXEtEYK5cQwIYVyYpSRQjkxiEihnJjWSKGcGCakUE6MMlIoJwYRKZQT0x4EQHdQTaGcmK7AR/xKoZwYNaRQTgwiJl0o2y2JP+6cSBwpkHgqhXJbnxKJ8QKfUygnRhUTIZTb/CqROBLEW75DRe4oJwYK+elFYpiQn14kRhkTIZTDlxKJiUJ+epGY1kihnBgmpFBOjDJSKCcGESmUE9MaKZQTw4QUyolRRgrlxCAihXJiWiOFcmKYkEI5McpIoZwYRAycUPbhdFt6ItGGsYQyYXCwYJtCOTFISKGcGGWkUE4MIgZKKMs7FKEcv4nYlpeYHByp/Sdq/tqEsvNnn322Co6DBdtBEsqDwOle/qlvB3vIHSaMZy6iTtiq2YbrsJ/0Xu2nUE6MMoZdKLf5/SjF1alGr7h7MJijNr71Qt+EssXh4YcfLjfccENtf6xyTz75ZFm/fn09byuT6B8QbdeuXeWxxx4re/bs+Tniue5FxrHyxoteQnnbtm01fyyBAYMklA8H7DiRAVZ7O3fuLA888ECd3+Y8uQ87rVmzZsLnbxCBU/i9Y8eOQx6vcvzBuaO62pEObMq+UU5edxuQQjkxyhh2odxExAIx93BiTWLiEXG6LQ8GQihLs5BcdtllZenSpWX79u11sWiWNQjXHOHuu+8uixcvLnv37n3X4OS3tZ+YOJgX83PLLbfUOWPvIBkQA02h1cwLAaGNxx9/vDz11FP1PPKb5eN+cd1Ma6JNKAu2zz//fL3XWAIDxiuUlR8rKEefwz6R1rzuTrvvvvsO7ISPVQ7Y2fikye8u341mfrOtyGcDDxeXX375Af+LPA8EjzzySLn66qtrvcBY95tqNPvWHHeg17Vx4ZQ4tHXr1nfZobt8sw5ur169umzZsqXcc8891T8efPDBWh8Xly9fXm699dby9NNPl02bNtVNgWbbgRTKiVEGLo9XKCtPE4QvtSH8Nc7Dl5vHZmyLMpEW5/IOVj7KBKQRxbHuibnWSjGXX7bFg8TEgO3xyjoWcxSQH9okrruhfhvneqEvQhlB7BLPmTOnLhQCuqPOKx8D2r17dyXXypUry5IlSw4QKwYnX51eg00cGWIeEM6iH4KYzeWbG4EgdvvlmUeQ98QTT1Qx6HzdunVl48aN9VzdmLcoH/dq5kU/moi2m0HVufKETpN7bThcoRzl8BLf2voE0V9lYiz66rptfEBM6TP+R1qUcYz7Ea6rVq2qD4z6AVG+zb8iv9mXaMt51GGLK6+8sgrlZjv6Y06vvfbaA+nN+lFu0MHu7BDX0femnaPMbbfdVkVvs1yzfnPcbCJ+RR0+sGHDhvp2jK+4vvPOO6twvuOOO+ocE+Iedpp2BvfgOziWQjkxahiPUFYOxPGIS23gs/xLGX7nPNKjjDTrWqRHXtTh/8p058U1KNOMKQH177rrrroOxttID9Fibgrl/oLtbVKIwa5jnpzjDS1y7733/tycBdRv414vTLhQ1jEEIbyOPfbYSiTkufHGG8v8+fPL5s2ba4AnsK644op6vP/++6uovu666+rOjXY8pS1cuLAsWLCgLlZJuokFe7Kxhd6if/PNN9eAQRAsW7aszosAx/4xB3YozSdBR3wREubw0UcfrTvKygRBtetpL85DrD300EPl9ttvr3W6uQP60CaUHTmGoCf49gq6hyqU5QMu4iexE6/Su/sU/cbpefPmVaEkMNpFtCvrbYh+CbDsqAx7GDsb6jcu4zc7sDsbSFPe/S+88MJy6qmn1gcOu9BR3nnTTuZN23FfwcHO51VXXVXnxdjtcPI1bXirQ/SZN3WdG4s2lJFGpKtP2Mei0Rz/VMP4ccm4YjfcOVuxo/Hot3QP3WvXrq1zYVy4LOY44rkx4jg7+RxDunliR+nqCL52kfkAfrCH8mKTRTHadM+YP2nyuuOUMtJwLoVyYtTQFMpjcT6A197siadisnjZKybzOzHwmmuuqf7If/myfH6urs/LxGMPstLFbOfq8G8+bcMg1g0xVCwU4/VhxYoV77pH078jdorn6lsnFy1aVC655JI65u5YkJg4mH9ro5jP9tZAcyf+mzfzT5uY7178aeNfL/RtRxnRZsyYUYWTxeymm26qBEUkhLv44osrCS0uFqVzzz23LnhI1hy8xV49i0L3fRLjQxCH0OXogot5sagTUkQsmxMSdvoJDCISEQUX86aeaw9AApZz9ZQlKM2lAEW0uBawBBTnBI7g0y0CQR/ahK4gi1fa4AgEk3TlmsAbXFG+O68JwZiYImIjqMWuQBNspT3BE4wbdwVhYhNHOaRxynPuwU8/iVn8Z0O2vv766+uRb5x99tnVRpdeemmtq6y6+sJXlLOD6TzEGlvps3ICvCDAf+xgmEMPm675jHnRxqxZs6o/6TO7urd+WFQIZW26v/r60nwrMCjQH7wTBJ0Tp8YJxsa+5t2Y8cucGicO4ySe4ZuHBSKY7fDMWOVrD+890LG5dIHWrjvb4waOx33EM0d9U9ec6Zu2u+NUCuXEKAOX8VjM3rdv37ticDd8ZuGBlf/itZjX63M43OejNhP4o1jGh8VCfm7t4Xt8WIy2YSDmiX3ip3XKxoS1TFx3rb5zsVB5sUWc1p6YKjY0/VssIrKVE6eVUfass86qm0r8vtnnxMSBbc2XeTOv5oFeEY/NufXCXEec7sbACGW7i7FjZbcMcYkxC7YFHME5hzaQFcn8GCjRZWFCOoQlIroXoMT4Yc4IPUQivDg1ESBIEXgWfPMjAJgbBFTHfJobgckcEnquBUNCgehQ3lFb2nA/7XgYErCkaR+x20RZL6EM0pTxoIVfxuA7JCI+YKdRejOtG+oYp35qx7VArs/NvoBgHQFR//34Bo1I1QZxRYw6sg+bsAd72YXwUDBz5sxqa0FckBaI7T74YUe2cWRL/nLOOedUOwnaHhz1IfohKESahUedM888s+5oquc4d+7c6j+gr/ogTX39E9RDKLufsbi/+s4Hzdf0ka310SJK6OKtMXgoYUtBU7pyFldxRD7eaEOeuXaO68GB4DobCboeGtQxn4Q4m7m/wGve2J0YJ76jLUJAP5Tptl0K5cQoA5fFVTG7O1Z3ww4ykSOGi11jxWQ+JQ6KbwSs2MXXrE0nnnhibYfwFuMJapt2fNQDMz9W9oILLqjti4nS+bxyYiiBbC2jP9xTLKBhxHX3lyY20DQeysXXiC/6xS/1MfqcmFiwLZ7QiDaszLuYaC7Ns3kXz3s9aJnHNr72Qt+EskEQuMh+/vnnVyISBESXRcsCoz4yE1kWNj8WIQNEfgsjgYKgKZQnDubMIszGAoaghGgCFfsTS3bnHM2FoEOYmAvCgqggWAhHwcQ8hlA2x4KKwGdHT1AhlAUneeZeeyBwdvNnLKEM0uVrn1jB3SaII+NoywPp8o1Bf2NHWZ7+RBAMuHY/D3JElB92CGFs3PHwh+8RoI1LOY6L/+xL1LINW+A/oSsoswv+szU7C/ra0zbbRT/4gGs7x2Ej9QlxbYKgoT+x+BDr+i2Q2zFvCmVB3pGAtxt+3nnn1bKD5mtsyS5syCb6SuTil3k0DnZlC3Mp/rCvGBSBkj3NvYXRubxursf8qBNC2bkHOnXEMm27b7foFpzZP4VyIvEOgr98JHaKe0Hs5M98K2KytaktJjvagPOQKx5Yl8Q369EPfvCDWpe/E7riq80MD7J819tN/bERoS0xUfy1NhG5ylnbxFLaQxmxQDwXi+L+IZT5vvu4n7z8Rrn/CI0ZQlnstu6aW3NnnfSA1GstM4/dXB0Lff1lPkR0Ha8zotOIiFjIaiFBbkLaDyIjrMWes1gcPTUO2uI9ncGZiSiCSVAiBNifcHQ0p+aAaDI3gpB68sxrzDlSmh8BClEFOkIGcbWvDfcS/AQzR+RVv9duwcGEMsgLoUHINCEYa5/TdOc14V4EM+iLMbRxTP+l47BgqizRaRyCqnvJYwf2Ib6MSzlBlk3tIjtG4GQLDymEcghi9Ygu9yOE2VJ5PhJ9ca2/F110UQ0S0gQF/uGc7ZTXL/cjgu2aeDidPXv2gTmxAyvwW2TMLzGtbYLbnA6ir+GEBc8ihIP6aQ6M2TiM1RxYrMwl0cw28o2bncW5EMq4zd7mz7wG13EXd+IB0TyaV9wl1s2PchZXYp09tSFNn/Sz2W/3Z1tcTaGcGEXgKrTF4UBsLuCzNUkcw295TX8K8DNxi1BSjm96kyjmShdP+aNYqKyjuMvXrWfxtk1bdoT5OI1CDCsvTuhHlBEXbITooxgQfbBZ4j7yHNWxKy0ORbxPTDzYNj69sL7hAQ41d5RxIOaqG+axjau90DehbBGxC+fcImOhJigsdkiNzAQB8hqYRY5wsPgpYxEjMBAVibsXoMSRwbwJEAIHUcH+FmbkspvG5oIDEvpswHwSDtKVl0eUypMeT+DmkvAmTpRDVKT1cGTeCQv3IKyJkG4iH4pQbiKCcACXBU5iozuvCfkcS5/UEdia/Qjon/YERLsSOGnMgjI+47Fve42PjQRk6exGDAucbBL8t3PJmT0Q6gMHV5eN7DzLZ0sPisqbI4sFm+gHqKs9PuKzGcLXgyd/swDwH/3QN/2Vpoxz5QhFQcZceiWq/+q6p364R5stphLGj1/GZBH1wGD8AqVj7C7gsP7H+HAQH/HNHFsA8du8sEOT6xZKDxB4YQ7Mm3lkN2Xx1n3cm9+4r9gmxpkTed2LYwrlRGI/mvG3F5TjM3wVt523iR3xQKwSszw8i3lipc0f8UGcsC7xXeJXPPQwTF+IscqIidqSbl2yHikfmkMMEReVEUPE/YjBIC57GyV2iOn6Yp2ga6wP3bEgMXFgW+uteRez6UjzIR57ELIumi8PL238GQihrGNIZ0GJa2RCZAsUklsEXFtcLOTxBCbdtYEasHznbYNNjB/sSSQiGcKFjXFBmvkwh4SFa/Mi33yYS4HANaFlnuO7YEf1Iti5l3Ttx/yq757KdPdL2uEI5W7o/6HWj+BsB1LghO7+GKP2OB1RxRGNRZoxCJA4jbPGx1Z4rYy+sLF2BG3pxu8+bMN3XLOZcWubPd1Tefz3MCKwE3GCgYBtTgQAZZR1L2W9btIOqEPk6YP7u58ygn/MUey+241V3rW50mbTBoMAfYo+xzVbGY/xy2NLtpEH5gXXIp7IUzd42c314LB5VJcwdj/3YCPQDpuZe3PhPs4JZXPtOvoM5kJ7+JZCOZE4OPDfwyqf5LtNf2qCH/JfD7X8lR/zGbHZNV8WI8RKa5S4K9+RX4Y+cQ9+xE/5uzgtbrh/lHGuDHEuDoP4GzFTGfFbmnIRh6KviYkF25oT8Tj0BT6YW3FcvrkXm9vqK9vGvV7oi1AGHUW8uBbUCRJpsXjEtTZAepyDfKR33mw7MTEwR+wbcyDNeaTJjzKR77z7OuorG0d5USbSIy3quO4GDsg/FKHbBlw+3PrKhvDo7k+M3+4DMSmIx1ikd3M00lw3bRj8l+5aXpPv0sIforzFQhm7HXYq7JIQzHGP6K/6zetoy3XY2VFa9DX6IE+5KCtd2iCi2Wdw3hxPHLvzu/OcN/Nj3FEG2N3CJ/CG3eJe3XUFZAu287h3QDvS8SyFciJxaIiYzPea/tQNPqgMH+Ob4YOO/LiZ3/TxKOPYXS/8XblmGf7mrZUdarA7LT/abMZRdRL9RXM+HZtpziM+N+sElGnjXS/0TSgnEuPBVAjlQFtQjmBpx9Bugba7y/Qb+tBEW5nExONQY5s56VU2hXIiMX70+kZ5qpCxeDiQQjkxrTFoQjng9Vzbq/XJQgbm6YkUyonE+DFoQhkyFk9/pFBOTGsMqlDG8wyOicNFCuVEYvwYRKGcmP5IoZyY1hhUoZxIjAcplBOJ8SOFcqIfSKGcmNZIoZwYJqRQTiTGjxTKiX4ghXJiWiOFcmKYkEI5kRg/Uign+oEUyolpjRTKiWFCCuVEYvxIoZzoB1IoJ6Y1UignhgkplBOJ8SOFcqIfmHShbBGIP5eSSBwpkJgAmCqh3NanROJIgI/4lUI5kTg8EMptPpVIHAli8+JQkTvKiYFC7ignhgm5o5xIjB+5o5zoB/LTi8S0RgrlxDAhhXIiMX6kUE70AymUE9MaKZQTw4QUyonE+JFCOdEPpFBOTGukUE4ME1IoJxLjRwrlRD+QQjkxrZFCOTFMSKGcSIwfKZQT/cBQCGVt+s3EtrzE5GCqHoCGTSjjcT5MTj2mks9NoYwPEyWU8fzpp59uzU8khgHDKJTH0jejtFaMZYd+w73b+NYLAymUn3322bJ79+5JM2SvMUzVJE419uzZU7Zv396a1wtsFXZ0DDTzmte9bDtMQtkYd+7cWbZt2/au8fcT7tFm2172HhXgM1635fVC2DLmLuavmeY8rrvrQ1Mo46Rz8W0sfh6qUHZPQnk8XE8kpgMmWiiHz7blteFwyh4qQt90p4sV8g43Tk1XPP/882XXrl2HZeOYP8dAMy/yo0yzbhPy2vjWCwMllA0OWa677rqyefPmuggcriEPB9pFWPdy37b87rRhh/kkKu68885qm0OxgTKce9OmTbXO448/XlavXl22bt1ahYE5XLt2bVm/fn0ta14FhDbumAevlMfacRsLgySUjWPNmjXl1ltvrXbZsmVLXznFnmxLYHXfp5/3HWQYN07dddddlRuHE6/wWTB/4oknygMPPFD5rL72cBmnzSsuR153G8ryAXwEC785cuzF0UMRyspo+2CiO5GYzti7d+/P+dR4IRaIwda3Q42HExk3tQXXX399jS3iQuSJHTt27CiLFi2qft/MG0YY36pVq8qGDRvqet1WphtsR6uxk3grJqsfc0R3PPTQQ3VzyhyPtd6ydxvfeqFvQlkHGYMRHIFwiPKOkRfl5bu+8sor6+J0++2318EqF2ir2w3p8uNeUTeMFvmEkd2+JUuW1AUvyoF0Iif6HHViXNHX5n0HCfoc443zGEfYpfs6xmXst9xySxW/Mea28o7Ajk8++WS54447KoGXLVtWli9fXpYuXVrbePDBB8vNN99c2zSvjz32WFmxYsWBdrrhfmMJibHQL6EcY9e2c8embZp5UZ6Y8cBw0003VQfH56jb9IXuuk1oP/JjDp1Lk99sz6LCruxtLNIDDz/8cLVN3FeaozajTIxlEBF9bZ47soNjpHdfG5dzXCRQjT/acWyWjzbDB8zXxo0bD/AZf8UJwVnM8AAkMAf3ow3HJqSZD5wE/ZDe62HwUIUyEQ+92kkkpiuC9+G/bQh/j1gmja91xzNl+DQf5KePPPJIzY+6ykFcRx4/Xbdu3YF1ofteTXTfV5loJ/L1Aa666qq6DlrjpMuXzpcvv/zyA3Eaov4gQt+j/8Yb49bn5nw4j+vIZxtzQQuwQ7O8/Kbd5ClPAIvJNMbdd99dN/OsrTTiU089VRYvXlxj8v3331/LKEt/RB+b0GY358ZCX4SyjlH9FhCLtsXGQO677766A2LQFgHXFh1GsTuClBaeK664oj5xObdgySNatWWhkqbuo48+euB+cWQYhuMM7iuNSIi6+uvJQ307QvroyUQ9k3bvvfdWe6xcubKcd955taynk+iP3VHtK9f9VDhI4OSIZbzGwwnNgZ0wc6CMozFId80W5sP4EM7YXceuvnT1te3aHBKA6hNo5ogdzY98YkJ9AkMfBAeiAzeksWs3f9TT1+gjjh2O6HUf/DqcOoFeQlmftIsfuKJvuIo/xosDuBbcEeA4KnsQaB4S2Ap/9I29lGVvddk56jbt4b5sxcbaYi/3Du5pSxoxrl/sq0/6ol847576ctFFF9WgYm7cxzwqr5wyyprnNn+eaoT92UL/2NK4jSv4qFyTz+qwmxhhzHhnztgav8Iv1FdOeeXUxXP2xumIN8oLxNoXoNXTB3OrPf6iP93xQLvs6l7iGF5q07XzNp4eTChHmn7qV1uZRGI6InwihGOsJU2fCr/i72KYtZzviYfKi4f8l5/xx4i3fJcW4O/Kig1ElXWSj8oXB2kHfnXbbbeVWbNm1XjqWvxXPuJHsy+hX9xbnBIb9Eu8ibLy9ctGYGgi9xWDnatDRPN749Fn9bXfZoOphP5EHDY+doeIqRGb5Bub8bJRaAg2JHbZk0Ywl+ZKm+bF2ug+bKmOuTEvNiy04z44Em3YnY41jO5wX0JZve6YDPrWxr9e6ItQNgDGQLJrr722LtLz588vl1xySX3toI4FBimQxkJngVdO+XPOOaca58Ybb6yEueeee8rFF19cX0vo6w033FAuu+yyMnfu3HofpI/BI71090Ja5HQP4psxTZp89c8666wqMBhWO9KvueaaKhzc+9hjj633Vs9YjMGkzps3rz75aVd/2iZiqoDA7OBVM8KxDcIIKOxBMHiSQyiLO/EkeHBIQoAIUNY8KSuNPbSJkNIEEEEISc0FhzafApC5d09kJhL1wX0EA86gnDxtuE/MXRPsqX94gfCuI4AeDOrog/M2vo6FNqHMnvponHPmzKnz7rhgwYLKCbzRR7zBZ+U499VXX12vlcEvgcLYlcUbbQikHPnSSy+t/Fy4cGEddwRF4xActIFz5sh8Ode+wMTG+nT22WfXewskAgbe4rN5NH8nnXRS9SE2V9+5ecNtvqI/ONM2H1MNfYpAGLtCeGXRCT4KvI78Fp/ZFXcjWLKThzNHvMUpsUFb5kWAdg/2wnN+ICa5X9hEfRx3zxDn6poH5d23F5/5izrKml9xzVzjXTeH9+3bV8soSzR354Pxaq9XfiIxHeGtWNNXrDsRD5uwC8kfxS1xFqwxYqTYLKaKD3xMvBULxVtrkZgtJoT+iJ3NCy64oK7xdIh1nhY57rjjajwQv8VN5cWQZr/4vLVVTFVH2+6jvLjO18WG0DfnnntuFYLuHwJZOi0RcV0ssqbQKeoPksYAY6adrCHmQkwVTyOmshHbs51Paa1H7CJeitPsaSPCmhUxnD3NQ8RkHNCe+sqKsexsXWQPsdl9rQvWLjbVL7xQV9/ktcVk89e9/o+FvgllizNiyEfm2EG0qCPqhRdeWI+ukQpBDYzQPf/88+uCJM2CiOQcQLvqICSxxfgIFoZwLwvIjBkzqpNIR1STwJD64V4hZpCQcd3HRLgPkpoEJEB0ixbxMXv27JquHQRGjhAmvXYipwrshCB2xdkD6YyXwxFKxJZzogIREdT8sK0xEg3I6YjQERjUQXb1PMgQIe4hsCmjvHLsjvBsg1tsbr4IZeJFQEN699bXZt+V0wabOkd4fcAd7faCdrSrX3gp6HZz9WBom0e20bagps/6c/rpp1eeGD9wVgEUV4latsAltmRXPGEPRzzDWWMEaezjHrjKb8ImjnjIHwSdCLZ8AR/Z133Y3X3MhaATgk+auTEG5fTBufbwQ16IZ3NLMOOLfnfbYSphftnW2NjBg4cx41bwMY4hVs2LMbIxXuC8NozPuTijDQtVcJ89Q0QL1hbL4JdzbbKZeOLe+qYveC12WYhj7gLB50iPPuMpu7uOMgH30z9c05dmnvlzP/1RT7vRx0RiugKP+al1H6xXkdf0pwBBbd3my+K2+ObBVnzgV+KqtYZPEp/8hv+Ii7SBetY48ZVApiVokojZ/J/IszlHA6jnXEwhdGMHNHySltCWcbi/NkPfWA/EfHFZ/+QpQ48Yq7XE+iEWhFAWj/l4bPjRG212mCoYuzGIheaNxtBndhFT2Vecs96Jq+bRORuEzcRzcdO5OGr84nNoC2shm2pbHdqr+dkMO5kr93QP95WuPLtaC6yJbRzSXpsG6IW+CmVEJFgckVMecluMTjnllEoeZEFShGJYdZHFOWIyFCewQLkfw8rXLpGrngUjHIHxCA4LjTSiGdmkmTxEV4cT2cEzuYQvG7hWjsH1P4QygUTM+OEwJtiPSTC2QRPK7GBc+snu7I2AnF+aOUAkZCRA1RFY2M5YHI1XusU6yiEqQrIXG8VTHDsrT3ggpXsJDhHwENccITSH0K4+6Zv5jn6DttThLOYEBBxlcUJ/jK0N8vFkvN9s9hLKxoSLnJQdcIRD4iJ7sp0dXXxmG4INl/yEoxOpOKcsG+KvdrUlwPvBT1yLfrCNIIlzfgQafmP++I16+qVeCHVzJRixhV0VefFQqA/mQVlp5ovwDjEdgbstsEwlwq8FZQ9X7Kf/TT56mDJ2YzI3bG0sYUt18c/446HOIqq+edMu+1qcLEp8RZvquxd+47q21cdL7eIzTpgnfGjjM/sGn/XBgw4+mw+LDbhvnIM8vG+mqRfQl7F8IZGYTuAfEeetLfxEOr/nQ02fAn4pzhKzfsRV67Fr8cBmgLjJV8WFiO/qWNtpgHhTJ1aLmdZya0dsOPBn8VWsFhtnzpxZy4N+iQVik/hg44I/KkugnXzyybUf6mnP/cQTsUX85t9isrGKH9oUH2JttWaIS6eddlqNU4MmlM0J0S+uWhfZ2LpvrNYwGs142VW+BxtzYdzmwRojfotlrtnbmkWfib3eClg7zZU086c8joix7E5DyHPt/uprl+1wx33F9Lb1TP3m2n8w9F0oK+NoUffkgSQISLzGAm3xIoYt9AZlgTdoBFbPtYVNWxyJuHBucXOuD9pxROAQAvpixwxxkVoZBpQWTyLaVd6kyzeZJtkkIa+fEMpEs6NF2A+SODfR3TaYShgHWyMPoWQRtpAjlnEKKuwrPwKRAMJBOaQ04zQv7IW47IHM0pRVHwk5Q9iNPdmZs3BudjHHISYIF+2aYwIFkbuFRRPGIPhwJnW1JV0f2nC45O9G2zwam/4KmPiGL3aX3UsQYBNcYmdjUVawxik/bC5PgHBUFmcEVOUFRu344RseGqMf8s2b+cK9eKB0b+N1L0FBwBUwzJ1r8yIwsTm/Mn/6w47a1X9BLQK8+cYLfsHe5rBpg6mGOTBmgZIt8IZP4y874COOmwscDLuwOZsow1fFufALc4mX8lyLM+aqKZTZS1vsHrvFbKM83rOZ+2hDGXPVxmf9B/fWP/0idCP+SdeWh3twrhzON9MD0a77JhLDgvANa0us3+E7wfkAH6UrrCMRO/ksXSGGOacfHMWMiO/OaQhxl7/zb6BXlBeXpWuXTokND/EzRBd/jX6IS/w43swR2mKL6259EyJPvBZnpFlz9ZegNn73E+eU0bYyYovxNsc/1TCuiI3x8CFeiof6bY0zRjYMoSxusr15EEeN03yziXmSpx77yrOOhlBWn/3FfbbQZugR9Wk0dtcvcR1/1NM//ezuvz52r/9joW9CWSdNujKOjMAA8V0OIhBNRALxYdDIS2T5dlgZ15yGQ2iDWPPkqQ2GlB+igOHdlzggJggBE0LAKW+hQ1TtIaUJsNhpjyCWpy8WVKLIJHtFooxJ1A4n4gzqK+s+Qf5uG0w19AlJ9NHiarwhCAQVi7Cxsn2UdW08xtwUyuYGCdlAvidd82MO2Imd1WVbdQUVJDfn2ucs5knw0Q9zpS19aBNliI3weOn+Ao45PpTvMbv5eTgIgdpEBARPuJzUeOLhjM3YCScERpzAUeOKnQSBTiAREPCYvZRlO/X4ifaU5ROCZgQSYya+1HMuT11Bwb0EA4FfcBE42CmEsvlS11zpp90V7bAnf4h5V1//1ONjxgvddphq6Cs+xUMze3rowEd8xjv8ttiwn3nAMXbh4/JCKJsz9Y3Zw3k8BLGbdFxgM76C0+ZH/HB/DxXK8gllYrHFbXXb+CwNX/RbX/ijYN/ks/OAH3PgXh6QmnnQ5HsiMQzAa37HT/iwOOUhkd+3xSPxkN/6XELsJJDFADHUtXVPPLNO2QyIeCve8Wvrk9jMr/mzOCzG64s4IF7wZxpAPBdvo7zYok/8GsQbMZiO0K6Y4f7WRPWMR7yQr2/ePhqf/umPOGZ3W3yIjUT3Er/9vpbrQRPKYG7EXzGZnY2bHcRU6475MH72NbeORKx11FpmTpTVTmgM+dq0XrGzeXFUnz3YAi9sZtJl5tL8mCv2li8Wi8nad6+BFcrIw2gGyQiODEl4GYijpw9C1+KNSBYPpLHrZgEieJGO4NU/JJbPSOoylIUwdlmUVxbZwpj6IS1IzGjAcSx+nIChLYCcyD0Q1W6PcVlITYbJtOAyuHTOQmwgvetBFBbGzub6qn9ElUU9iGsRNibpyjoaD3Kph6zaYVfn7KmuMmwmHTnNjUBhrtid7QQZ7SCstrQt+JhXc89JOIQ2u23n2nwSFOppO4JpG/8mEu7V7EvAHHPWEDnGqZ84E47ItjjB4eXhPH5HwDVmbSjLDh4mlGF7dsJPdlWXbcG93CMeLtTFVWVxWpuCLVGO0wSvORWgtK0/OExAE+j6w3f0Q9va4y+CknYEb/dps8FUwxyIE2xP7BpT8NEcGAeeBp9xS1n+i4N8WCzAP/yXz5Z46siWbBN8NmfmhS3NqYcT1+JaxDFp/Ei7+OxcP5v9Np/6izvKiYchdts4CPLVNabJ4H0iMSgIwYz/fJJP8aGmT0GIU3HUuk1ESRMrxTl+z8/FOL6qnDyxgrDSBmEVm2j8U1zkn+KAOMrPaQ5rl3OxPMSu+MmfxWmxyFFZfdFncZtYJObFFPEm9I21Qn1rpTKEsvVT7ArNI+bQRsqKOYMYl8U6YxWHjU8aW+pzbCqwg3XFPIiD5il0gTxzbGxiNxuaM3HVXJkTYwdz62iTgz3Nb8Rkddxb29Llu5eYHO03+w363s29sdAXoQzIHXmOQfZI03nncS0/0hyjfhwjL9qAMD4CeoKLp8mm4Im6oDyHYVB9R3pO4DzuE4j+NNN79TPuNWiIvsZ5jKt5bJaN9O68tnrdR4QkOgQUdpYOzbZBniAkKEXfuhFtTJZADjR5040Ya5w7xrgcgxOR1+RIlOnOk9asa9eAoMNlD3L4KVgI3uo16yor6Nt5YCvCzvfGUSbu1zyPezpGe5EeiPRBRNgqzvW3+9gsG+ndeW31olzAQiYQC97sH+nNtiEWVoux67hHE/is34fK5xTKiVEGzvMBMS58rhtitXWfMIs3ytLDL12HP8Z5+G34cjM98pRvllMm8p1HHeJWnAYCupkX9QPN+q4dm33tTusu61reICL6Gn2M/scxEGW70yOvu15bOVqPxqA1xN3uMq5BnochWjD62Q3l2rjXC30TyoeCGGBbXje6y0Vdi5BdH0KByGDEtjalMaAnOk9xFkHCWl1Co9lmd902HGq5UULs2B3MNp6cPYW3lVPfPMXOwmRiLKF8KOgez1h2aCvLlwgzXAYCjGBrK8tGdiTiUww7wnZYtBHl2+o1r5sYK28UwR5j8TQgzxy1vR2B5kNfG+fakEI5kdgPIrjbpyCEsgfU7s8S2vywlw+P5dttiPJ2NyNO2x2VHmiWbV63Yaz8g9UdNbDHocZk8bht7QxMK6E8UbAQEQ4QT2ZtkOf1radBTuZV91jlE4eHQ+UC8vYi8HiExUThSIXyRIANg8vQy07SlfWJhU8nvEYksgfBH4cFbNnL/k0cjM9iTBvfeiGFciKxH72+zeVTNsbsHE7FGn6omiMxsTicmDzWWiivjW+9MBRC+XCgv0Hw2ElODA5GXSgfLthKv/F5uvniKCCFciIxfvQSysCvMuYlxoMUyolpjRTKiWFCCuVEYvwYSygnEuNFCuXEtEYK5cQwIYVyIjF+pFBO9AMplBPTGimUE8OEFMqJxPiRQjnRD6RQTkxrpFBODBNSKCcS40cK5UQ/kEI5Ma2RQjkxTEihnEiMHymUE/1ACuXEtMZUCmVBGZ8TiYkEPrfxrRdSKCcS+5FCOdEPiMttfOuFIxbKdkvi74gmEkcKJPanzqZKIPgD94nERKONa72QQjmR2A9CuW2dSCSOBIf7li93lBMDhancUU4kBgEplBOJ/cgd5UQ/MOk7yimUExOJFMqJUUcK5URiP1IoJ/qBFMqJaY0UyolRRwrlRGI/Uign+oEUyolpjRTKiVFHCOVt27alHyRGGimUE/3A0AtlH2K3pR8u4qPutrzE1CGFcmLU0RTKztvKJBKjgH4K5cPVAKkZhgcDK5R7kexwyTceorbdYzztJA4d47VvCuXEqIM43r17d9m+fXsK5cRII3eUE///9u7rx3FjzcPwn+9b39gGHOGcc84555yzDV84wPcLWIuXQHl1+nyyd8+M1jPTTwMPJFElisMqsn5VZPccwzkblAtAv//++78tb1nvtZ6/C1eVefvtt3fffvvt9uc9pjKTk9/dZz/++OPN/2U9/O+tep3emwYui6DMaVc4/vnnn3e//fbb7o8//hjLwGlwrKBcH/Ppp5/u3n///e353+WYynz00Ucywz/or3LDSX9X9pwJyvsb2d/F/eyzz7aQWyPrM6nxvfXWW7svv/xy6xTqHHq/z65yax0976C55557du+99972v6it9awyfe7kstbTd7/zzjvb91Wm7X766ad3zzzzjP+N7Qja/5988snu66+//nOft6zHrBDQ85Of3Q/KwjKnUUG5c3LHh2OA0+yvgvLqV1Z/3+uVH/Zf7/c9a3l/2/zFF1/cPfbYY9v7/eLsWs9a5375jsOnnnrqz8zQsv3v4rjaz11h60rb2ucn62iVbfm6Irfq9KSWT+3tkKMF5f0Z3Mo0EnvzzTe3EFRI+uWXX7blLStQvfLKK1vDbVmfLUytnZKet/z+++/fffDBB9sB1Hp+/fXXf9lJlWv5el1jLrQVyAvsa5azBv/8888LykfQPq++q9eet89XnVS/r7766jZ4OdR2qtPKdzITFDhNCsmdI7///vvtHKf9c5r93YxymaD+ouf1M+WGHutb1uvV96y+v8f6/ZdffnnLAc0sP/roo3++3/rKJyt7rOVNrpUZ2qa17pbv5w+Oo31cfX3xxRdb3fa6eq3+e74eK9v7lStTnlzPUpmpvR1y1oNyG1sjqgH+8MMP2+vnnntu9/rrr2+XOeoA7rrrrt3tt9++++abb7bZ4Q8//HB35ZVX7i6++OLt8kZuvfXW3QMPPLA12Brufffdt80mX3PNNbvPP/989+OPP+7uuOOO3W233ba97nsK2pXr+wpobU+dTgdCs9lt65NPPrm78847d9dff/3upZdeEpSPYA1OukWmqwU12E4yzer/9NNPW90/+OCDW1tY9bRUjw12qt81q1Y7Exi4kNW+l9p9nbD7kzntDgXl+vV3331399BDD219SRmh/v/mm2/eAlX9xgsvvLC9Lg8UnHqsvy9vNNnWJF2zxOWKiy66aOun6p+ajLvlllu2Pqz+aWWG6667bivTdz/++OO7G2+8cfuOvivTdnLmqoPOiWXC6rs6KluUKaqPzpXlu8q0vJz57LPPbnXY86l+/vGgnGZu77777i0cN/1dmG3Da5QpzDajWAh++OGHtwZbY62BNkooXBWWC1T9Q9sZPa/hXnbZZdtjIboG3OxkgbnPXXHFFbt7771321lruzowKvPEE09sgbnG3ndfffXVf44OT24/Z6b672TVrHJtoNF6g6JHHnlk9913322PNez9UeDSIKvPN5tc+yhM99v/HSxT+4MLRW28TqBjxGwyHA7K9Q/lhauuumoLwYXfMkIB+KabbtomZerrm4grD9TftLxjqkDdRF7LyiUF6CbO6mfSulpexiiH7GeG+rX1HeWQ9VifNW0nZ64sV76rPsqD5YJCcvmigUoDppY38Vmmq66q226rKX8eWufU3g45SlAunBaQ2tAaao/9Ywq2NeBGYv0jOwgKTTW8gmyNsFmU3uv15ZdfvoXkwm+3TvTT89bdOtoJdS411q+++mobQXRQ7B9ca1tq+Glb+mlb1ghzf9s5c500Gpx0AmkQVBvoBFUj7naMTlI9Hjq5rPuLGinWNhvg1Pi7j6zlcCGpc+4KSoPJHjsuhGQ4HJRb3kxyQamfJuAuueSSbVLm0ksv3fqdJuvKEfUnZYwm7FpnmaK+qExRBuixdfWLsw1UywmVbQazz6/M0HeUUfqOwnY/vV9oO7SdnLkm08qZ7evOj50vm+EvY1QXBeTKFaSb6V9XDaqjQ/nunAjKhdd1i0Wzx4XkwlL/qDa8tH/ttdduywqsjQZ6rwbcaKEQXKDuskk7odnm1tFPDfq1117bwnFl+67KFaQq17+lZWtbVlAunKXG3k8HQweLoHz27QflTkKNytvPNdwGNNVBVw0OBeVGj4XiFSAKyjX82lTLO5nBhaI2ve53dF8+/I9DAbT+pEm2AnE/5YcywbqtonDcsVV4Wle3u/JcGC5TFJDLIT32XuU67lbYKh8UlAvJZZR+WlZG6Sp4j/0UkntfUD6edetE9dLtvGW8Jky75bYcUU6oXFmzMtVF2bJB1KGMcU4E5TUC6FJIo7w6gQJT95f0vEvuNa4ad/+wgnKvC1AF3i51dAm+GeL+sWsmuGDcpZYOhBp/O6Md1QHSQdGBULA6GZQL1q27sN029f2tu/UKymdfjbMTSVcGOpFVX+3nNaPcfu+ENrWddetFjb3AXDhOy1ebK0zAhaI2XSftnmT4V38VlMsThdzC7xtvvLEF2/r2MkbhqQFo2eaGG27YJmnKCd3L3AReAbdM0uTZygX1Md2CsX6nqeett1yxMkMhu2UFtcJ4n6usHHFcZYVmlKub6rBBUrmgOlhXDMoX62p15cp81emh9U3t7ZCjBOXUcGqMNdIae2F4Xe5oBjiNCArCBaoCciG4UNvIYF36WL8A1ixzDbbPdYmy8jX81t86+85mmyvbzfaF5dQRdSD03e20puxbd+vpc4dGHPzn2v+dPKrf6r1G236ubmvc1Xcnue7F3B/UpEFW9VSbbPTYQVAdFiLMtAGcHoeCcv3JCrlrUqUryk2y1beUEcoRZYRCVeG5ybXCbrmiCZz6pm6lKFT3RwIK003wFJAL080c97mer8xQHqlPal1lj2age12/NW0nZ0c5obquTsoGTbQ10Vob6B716rG80PMGTw2Sqvfqa81I76/vnAnKbVgzwDXCyqw/udI9eQWnGnJlaog18j7TZfmCbp8pZFW299pJ7YRmj1vW6K51to6Wre/sc62zsgXwNALsvuW+v/WsdbcjW/fJHcjZ0f7uBNI+Xvu5+q/uUmDu9cn9v8qlE6BZNoDT6VBQrp8oO9TP9Lw8UJ9Rtqi/r48pH/S6ck3e1Pev33WpT+qzvddnm7RJnytsdWW69fXeycywcsRad2WmbeTsqY5Xblh1Xs5br6uHyjXJVkbseVmybLu/nqU6m9rbIUcLyum9NWO4GnMaDdZwV5neS8vXZ3reY8srV/lDy9br3mtZU++NPNKoY/2CzCpzcj2cffv1uvbz/rJD+7+GXh2aQQY43Q4F5az+ZP91fXv9R8tXPmh575/s+7Peq+xavsoc+tz+slWG42vfrzpYz9frVQ/7z3vvUP20fGpvhxw1KP9T2qZu/VjaeVM5zj0rKAvJAKfbXwVl+E8JypzXBGUAIihzDIIy5zVBGYAIyhyDoMx5TVAGIIIyxyAoc14TlAGIoMwxCMqc1wRlACIocwyCMuc1QRmACMocg6DMeU1QBiCCMsfw/x6U+zvF/eFtOFs6OU5tDYDTZeoj4EyUW6e2dsgZB2UAALgQCcoAADAQlAEAYCAoAwDAQFAGAICBoAwAAANBGQAABoIyAAAMBGUAABgIygAAMBCUAQBgICgDAMBAUAYAgIGgDAAAA0EZAAAGgjIAAAwEZQAAGAjKAAAwEJQBAGAgKAMAwEBQBgCAgaAMAAADQRkAAAaCMgAADARlAAAYCMoAADAQlAEAYCAoAwDAQFAGAICBoAwAAANBGQAABoIyAAAMBGUAABgIygAAMBCUAQBgICgDAMBAUAYAgIGgDAAAA0EZAAAGgjIAAAwEZQAAGAjKAAAwEJQBAGAgKAMAwEBQBgCAgaAMAAADQRkAAAaCMgAADARlAAAYCMoAADAQlAEAYCAoAwDAQFAGAICBoAwAAANBGQAABoIyAAAMBGUAABgIygAAMBCUAQBgICgDAMBAUAYAgIGgDAAAA0EZAAAGgjIAAAwEZQAAGAjKAAAwEJQBAGAgKAMAwEBQBgCAgaAMAAADQRkAAAaCMgAADARlAAAYCMoAADAQlAEAYCAoAwDAQFAGAICBoAwAAANBGQAABoIyAAAMBGUAABgIygAAMBCUAQBgICgDAMBAUAYAgIGgDAAAA0EZAAAGgjIAAAwEZQAAGAjKAAAwEJQBAGAgKAMAwEBQBgCAgaAMAAADQRkAAAaCMgAADARlAAAYCMoAADAQlAEAYCAoAwDAQFAGAICBoAwAAP/mv3b/Ddrjj2RYgg0sAAAAAElFTkSuQmCC;" vertex="1" parent="1">
          <mxGeometry x="40" y="-60" width="557" height="377.57" as="geometry" />
        </mxCell>
        <mxCell id="9nawGHE7vC64cBDkuVQV-25" style="edgeStyle=orthogonalEdgeStyle;rounded=0;orthogonalLoop=1;jettySize=auto;html=1;exitX=0.5;exitY=0;exitDx=0;exitDy=0;entryX=0.807;entryY=0.98;entryDx=0;entryDy=0;entryPerimeter=0;" edge="1" parent="1" source="9nawGHE7vC64cBDkuVQV-8" target="G0jkS-PYpLeZnaO4Q7pQ-2">
          <mxGeometry relative="1" as="geometry" />
        </mxCell>
        <mxCell id="9nawGHE7vC64cBDkuVQV-33" style="edgeStyle=orthogonalEdgeStyle;rounded=0;orthogonalLoop=1;jettySize=auto;html=1;exitX=1;exitY=0.5;exitDx=0;exitDy=0;entryX=0;entryY=0.5;entryDx=0;entryDy=0;" edge="1" parent="1" source="9nawGHE7vC64cBDkuVQV-26" target="9nawGHE7vC64cBDkuVQV-27">
          <mxGeometry relative="1" as="geometry" />
        </mxCell>
        <mxCell id="9nawGHE7vC64cBDkuVQV-26" value="Cita" style="ellipse;whiteSpace=wrap;html=1;" vertex="1" parent="1">
          <mxGeometry x="20" y="610" width="120" height="80" as="geometry" />
        </mxCell>
        <mxCell id="9nawGHE7vC64cBDkuVQV-27" value="Puede tener" style="rhombus;whiteSpace=wrap;html=1;" vertex="1" parent="1">
          <mxGeometry x="70" y="740" width="80" height="80" as="geometry" />
        </mxCell>
        <mxCell id="9nawGHE7vC64cBDkuVQV-31" style="edgeStyle=orthogonalEdgeStyle;rounded=0;orthogonalLoop=1;jettySize=auto;html=1;exitX=1;exitY=0.5;exitDx=0;exitDy=0;entryX=0;entryY=0.5;entryDx=0;entryDy=0;" edge="1" parent="1" source="9nawGHE7vC64cBDkuVQV-28" target="9nawGHE7vC64cBDkuVQV-29">
          <mxGeometry relative="1" as="geometry" />
        </mxCell>
        <mxCell id="9nawGHE7vC64cBDkuVQV-28" value="Examen" style="ellipse;whiteSpace=wrap;html=1;" vertex="1" parent="1">
          <mxGeometry x="230" y="630" width="120" height="80" as="geometry" />
        </mxCell>
        <mxCell id="9nawGHE7vC64cBDkuVQV-32" style="edgeStyle=orthogonalEdgeStyle;rounded=0;orthogonalLoop=1;jettySize=auto;html=1;exitX=0.5;exitY=1;exitDx=0;exitDy=0;entryX=0.5;entryY=0;entryDx=0;entryDy=0;" edge="1" parent="1" source="9nawGHE7vC64cBDkuVQV-29" target="9nawGHE7vC64cBDkuVQV-30">
          <mxGeometry relative="1" as="geometry" />
        </mxCell>
        <mxCell id="9nawGHE7vC64cBDkuVQV-29" value="Puede tener" style="rhombus;whiteSpace=wrap;html=1;" vertex="1" parent="1">
          <mxGeometry x="385" y="620" width="80" height="80" as="geometry" />
        </mxCell>
        <mxCell id="9nawGHE7vC64cBDkuVQV-30" value="Resultado" style="ellipse;whiteSpace=wrap;html=1;" vertex="1" parent="1">
          <mxGeometry x="305" y="790" width="120" height="80" as="geometry" />
        </mxCell>
        <mxCell id="9nawGHE7vC64cBDkuVQV-35" style="edgeStyle=orthogonalEdgeStyle;rounded=0;orthogonalLoop=1;jettySize=auto;html=1;exitX=0.5;exitY=1;exitDx=0;exitDy=0;entryX=-0.02;entryY=0.6;entryDx=0;entryDy=0;entryPerimeter=0;" edge="1" parent="1" source="9nawGHE7vC64cBDkuVQV-27" target="9nawGHE7vC64cBDkuVQV-30">
          <mxGeometry relative="1" as="geometry" />
        </mxCell>
        <mxCell id="9nawGHE7vC64cBDkuVQV-41" style="edgeStyle=orthogonalEdgeStyle;rounded=0;orthogonalLoop=1;jettySize=auto;html=1;exitX=0.5;exitY=1;exitDx=0;exitDy=0;entryX=0;entryY=0;entryDx=0;entryDy=0;" edge="1" parent="1" source="9nawGHE7vC64cBDkuVQV-39" target="9nawGHE7vC64cBDkuVQV-26">
          <mxGeometry relative="1" as="geometry" />
        </mxCell>
        <mxCell id="9nawGHE7vC64cBDkuVQV-39" value="Puede tener" style="rhombus;whiteSpace=wrap;html=1;" vertex="1" parent="1">
          <mxGeometry x="40" y="455" width="80" height="80" as="geometry" />
        </mxCell>
        <mxCell id="9nawGHE7vC64cBDkuVQV-44" style="edgeStyle=orthogonalEdgeStyle;rounded=0;orthogonalLoop=1;jettySize=auto;html=1;entryX=1;entryY=0.5;entryDx=0;entryDy=0;" edge="1" parent="1" source="9nawGHE7vC64cBDkuVQV-43" target="9nawGHE7vC64cBDkuVQV-9">
          <mxGeometry relative="1" as="geometry" />
        </mxCell>
        <mxCell id="9nawGHE7vC64cBDkuVQV-43" value="Puede tener" style="rhombus;whiteSpace=wrap;html=1;" vertex="1" parent="1">
          <mxGeometry x="770" y="480" width="80" height="80" as="geometry" />
        </mxCell>
        <mxCell id="9nawGHE7vC64cBDkuVQV-45" value="1:N" style="text;html=1;align=center;verticalAlign=middle;resizable=0;points=[];autosize=1;strokeColor=none;fillColor=none;" vertex="1" parent="1">
          <mxGeometry x="80" y="438" width="40" height="30" as="geometry" />
        </mxCell>
        <mxCell id="9nawGHE7vC64cBDkuVQV-46" style="edgeStyle=orthogonalEdgeStyle;rounded=0;orthogonalLoop=1;jettySize=auto;html=1;exitX=0.5;exitY=0;exitDx=0;exitDy=0;entryX=0.68;entryY=1.03;entryDx=0;entryDy=0;entryPerimeter=0;" edge="1" parent="1" source="G0jkS-PYpLeZnaO4Q7pQ-14" target="G0jkS-PYpLeZnaO4Q7pQ-2">
          <mxGeometry relative="1" as="geometry" />
        </mxCell>
        <mxCell id="9nawGHE7vC64cBDkuVQV-47" value="N:1" style="text;html=1;align=center;verticalAlign=middle;resizable=0;points=[];autosize=1;strokeColor=none;fillColor=none;" vertex="1" parent="1">
          <mxGeometry x="440" y="478" width="40" height="30" as="geometry" />
        </mxCell>
        <mxCell id="9nawGHE7vC64cBDkuVQV-48" value="N:N" style="text;html=1;align=center;verticalAlign=middle;resizable=0;points=[];autosize=1;strokeColor=none;fillColor=none;" vertex="1" parent="1">
          <mxGeometry x="170" y="708" width="40" height="30" as="geometry" />
        </mxCell>
        <mxCell id="9nawGHE7vC64cBDkuVQV-49" value="N:N" style="text;html=1;align=center;verticalAlign=middle;resizable=0;points=[];autosize=1;strokeColor=none;fillColor=none;" vertex="1" parent="1">
          <mxGeometry x="430" y="608" width="40" height="30" as="geometry" />
        </mxCell>
      </root>
    </mxGraphModel>
  </diagram>
</mxfile>
